<?xml version="1.0" standalone="no"?>
<!DOCTYPE svg PUBLIC "-//W3C//DTD SVG 20010904//EN"
 "http://www.w3.org/TR/2001/REC-SVG-20010904/DTD/svg10.dtd">
<svg version="1.0" xmlns="http://www.w3.org/2000/svg"
 width="500.000000pt" height="500.000000pt" viewBox="0 0 500.000000 500.000000"
 preserveAspectRatio="xMidYMid meet">

<g transform="translate(0.000000,500.000000) scale(0.100000,-0.100000)"
fill="#000000" stroke="none">
<path d="M2340 3627 c-54 -16 -98 -55 -135 -122 -23 -42 -28 -63 -29 -130 -1
-76 1 -82 34 -129 32 -44 181 -176 199 -176 8 0 35 -57 46 -97 9 -32 -20 -137
-56 -208 -17 -33 -51 -79 -77 -102 l-47 -42 -3 -79 c-4 -77 -3 -80 28 -115 36
-41 120 -77 180 -77 87 0 161 49 216 145 27 47 29 57 31 175 1 69 2 128 3 133
1 16 24 5 56 -27 41 -41 44 -83 14 -171 -26 -76 -29 -141 -6 -163 13 -13 32
-16 81 -15 104 3 182 62 206 157 15 62 1 111 -52 178 -44 56 -48 73 -20 88 36
19 58 11 85 -30 33 -50 56 -51 87 -2 28 43 64 54 74 23 4 -14 -4 -35 -27 -67
-48 -67 -58 -88 -70 -148 -17 -78 -3 -106 52 -106 34 0 47 6 71 32 26 30 49
82 49 116 0 7 12 12 28 12 49 0 102 71 102 134 0 44 -30 104 -66 131 -42 32
-127 49 -184 36 -39 -9 -44 -7 -67 17 -13 15 -44 48 -69 73 -109 111 -261 103
-412 -23 -37 -32 -67 -36 -76 -12 -6 17 41 101 70 124 22 19 17 42 -19 76 -58
56 -111 84 -168 90 -95 9 -101 12 -97 42 3 23 8 28 38 30 90 9 223 -46 295
-122 l41 -43 105 -5 c95 -5 113 -9 180 -41 41 -20 100 -59 131 -87 l57 -50 66
4 c76 6 85 10 85 38 0 37 -51 135 -81 157 -37 28 -132 61 -173 61 -43 0 -51 8
-76 70 -27 67 -34 76 -89 112 -56 35 -142 38 -209 8 -50 -23 -58 -21 -97 30
-61 78 -206 124 -305 97z"/>
<path d="M1943 3579 c-52 -9 -133 -52 -181 -95 -31 -30 -19 -49 37 -58 21 -3
50 -15 64 -26 14 -11 29 -20 34 -20 20 0 72 -68 87 -113 20 -60 20 -149 0
-207 -23 -65 -62 -113 -154 -187 -124 -100 -169 -175 -194 -328 -11 -70 -11
-70 -45 -73 -20 -2 -37 2 -42 10 -25 39 11 197 65 280 46 72 103 128 185 180
93 59 121 107 121 210 0 65 -4 80 -27 115 -39 58 -103 108 -157 123 -112 31
-232 -66 -273 -221 -17 -66 -17 -69 7 -192 19 -104 21 -129 10 -141 -24 -30
-48 -19 -60 27 -6 23 -18 64 -26 91 -8 27 -14 62 -14 78 0 34 -4 35 -51 3
-103 -72 -156 -236 -114 -356 23 -65 74 -114 75 -71 1 27 24 62 56 83 38 25
61 24 69 -2 7 -22 -33 -89 -67 -113 -27 -19 -58 -96 -58 -147 0 -88 47 -163
144 -226 59 -39 116 -49 188 -34 99 22 208 119 260 231 27 58 31 79 38 205 7
129 10 144 36 191 43 75 85 121 127 139 64 27 106 -15 51 -52 -39 -25 -97
-110 -123 -178 -17 -49 -22 -85 -24 -185 l-2 -125 34 -3 c18 -2 60 6 91 18 52
19 60 26 74 65 9 23 21 78 25 121 l9 78 56 51 c109 99 134 216 63 295 -12 14
-52 46 -88 72 -85 60 -124 118 -140 209 -11 62 -10 77 9 155 11 47 18 92 15
100 -9 24 -110 37 -190 23z"/>
<path d="M2200 2375 c-64 -37 -97 -46 -189 -52 l-98 -6 -26 -41 c-14 -23 -51
-63 -81 -90 -31 -27 -56 -55 -56 -63 0 -8 14 -28 31 -46 63 -63 116 -176 159
-342 13 -49 28 -96 33 -102 14 -20 43 -16 71 10 22 19 28 39 45 152 11 72 25
176 31 233 12 126 46 208 109 264 43 40 55 81 25 92 -22 8 -26 8 -54 -9z"/>
<path d="M2873 2320 c-8 -43 -7 -43 50 -63 100 -35 165 -46 177 -32 8 9 4 17
-14 29 -14 9 -31 16 -38 16 -7 0 -27 8 -44 19 -16 10 -51 28 -77 39 l-48 21
-6 -29z"/>
<path d="M2262 2123 l3 -48 83 -3 82 -3 0 -209 0 -210 61 0 60 0 -2 208 -1
207 83 5 84 5 3 48 3 47 -231 0 -231 0 3 -47z"/>
<path d="M2780 1904 l0 -266 23 6 c12 3 102 6 200 6 l177 0 0 45 0 45 -140 0
-140 0 0 65 0 65 120 0 120 0 0 45 0 45 -120 0 -121 0 3 58 3 57 133 0 132 0
0 48 0 47 -195 0 -195 0 0 -266z"/>
<path d="M3224 2156 c-3 -8 -4 -29 -2 -48 l3 -33 83 -3 82 -3 0 -209 c0 -115
3 -211 8 -213 4 -2 31 -2 60 1 l52 4 0 209 0 208 83 3 82 3 3 48 3 47 -226 0
c-185 0 -227 -3 -231 -14z"/>
<path d="M2750 1540 c25 -4 49 -4 55 1 5 5 -13 8 -45 8 l-55 -2 45 -7z"/>
<path d="M3308 1543 c7 -3 16 -2 19 1 4 3 -2 6 -13 5 -11 0 -14 -3 -6 -6z"/>
<path d="M3410 1540 c0 -5 25 -10 55 -10 30 0 55 5 55 10 0 6 -25 10 -55 10
-30 0 -55 -4 -55 -10z"/>
<path d="M3568 1538 c9 -9 15 -9 24 0 9 9 7 12 -12 12 -19 0 -21 -3 -12 -12z"/>
</g>
</svg>
