<?xml version="1.0" standalone="no"?>
<!DOCTYPE svg PUBLIC "-//W3C//DTD SVG 20010904//EN"
 "http://www.w3.org/TR/2001/REC-SVG-20010904/DTD/svg10.dtd">
<svg version="1.0" xmlns="http://www.w3.org/2000/svg"
 width="788.000000pt" height="788.000000pt" viewBox="0 0 788.000000 788.000000"
 preserveAspectRatio="xMidYMid meet">
<metadata>
Created by potrace 1.11, written by Peter Selinger 2001-2013
</metadata>
<g transform="translate(0.000000,788.000000) scale(0.100000,-0.100000)"
fill="#000000" stroke="none">
<path d="M3718 7876 c-1 -2 -46 -6 -98 -10 -178 -12 -516 -69 -665 -111 -449
-128 -803 -285 -1140 -504 -61 -39 -222 -153 -265 -188 -93 -74 -141 -113
-170 -138 -219 -190 -458 -447 -621 -665 -332 -446 -597 -1070 -698 -1643 -45
-256 -56 -386 -56 -682 1 -358 30 -602 111 -930 106 -427 294 -853 539 -1225
75 -113 208 -297 225 -310 3 -3 13 -15 21 -27 52 -76 329 -362 469 -484 314
-275 685 -499 1115 -674 279 -114 679 -220 943 -251 26 -3 58 -7 72 -9 198
-31 733 -25 935 9 17 3 53 8 80 12 49 6 65 9 115 19 14 2 36 7 50 9 50 9 178
39 285 68 404 108 808 292 1163 530 91 61 256 181 272 198 3 3 18 16 34 28
131 101 412 378 542 535 277 336 488 700 644 1112 49 132 109 316 126 390 1 6
11 46 22 90 22 83 66 323 77 410 3 28 8 66 11 85 30 221 25 699 -11 937 -3 18
-7 50 -10 70 -8 55 -25 143 -35 183 -5 19 -12 51 -15 70 -3 19 -11 53 -16 75
-6 22 -13 48 -14 57 -8 38 -88 294 -120 385 -230 635 -616 1184 -1165 1657
-73 62 -306 236 -318 236 -6 0 -12 4 -14 9 -7 21 -294 188 -473 276 -229 113
-572 242 -740 280 -11 2 -58 13 -105 25 -83 19 -215 44 -295 55 -22 3 -49 7
-60 10 -11 2 -51 7 -90 10 -38 4 -83 9 -100 12 -33 5 -551 13 -557 9z m-556
-2786 c61 -17 73 -40 73 -140 0 -110 -11 -127 -115 -181 -83 -43 -123 -47
-128 -12 -11 75 -278 62 -552 -27 -167 -55 -361 -165 -421 -240 -30 -38 -43
-98 -25 -122 44 -59 160 -79 536 -93 253 -9 371 -20 403 -36 27 -15 20 -43
-23 -92 -50 -55 -81 -68 -262 -108 -260 -57 -448 -131 -620 -245 -269 -179
-339 -350 -176 -431 62 -31 109 -38 258 -36 264 2 463 78 829 315 90 59 105
57 89 -14 -51 -231 -224 -378 -558 -477 -176 -53 -294 -72 -475 -77 -191 -5
-287 25 -370 117 -58 65 -78 121 -72 204 8 108 71 223 172 316 27 24 53 49 60
55 6 6 42 33 80 58 131 90 280 155 496 217 163 46 189 57 189 80 0 27 -34 34
-307 64 -24 3 -64 7 -90 10 -71 8 -173 35 -215 56 -20 10 -49 35 -64 54 -93
122 -64 295 76 447 158 173 458 303 770 334 36 4 66 8 68 9 9 8 344 3 374 -5z
m3279 0 c62 -17 74 -39 74 -140 0 -110 -13 -130 -116 -182 -101 -50 -116 -52
-128 -17 -15 43 -44 53 -161 53 -174 -1 -356 -49 -565 -149 -214 -103 -310
-200 -274 -279 30 -64 144 -86 536 -101 357 -14 423 -24 423 -64 0 -23 -64
-98 -101 -117 -17 -8 -105 -32 -197 -54 -291 -67 -450 -130 -621 -244 -257
-171 -337 -336 -203 -419 62 -39 127 -52 257 -51 269 1 451 64 771 265 161
101 174 107 175 88 4 -45 -28 -149 -67 -215 -110 -187 -411 -327 -824 -383
-96 -13 -272 -11 -327 3 -119 32 -195 91 -239 184 -23 49 -26 65 -21 127 3 39
13 88 23 110 101 221 362 408 717 515 74 23 143 42 154 44 10 2 37 12 61 21
44 18 58 49 25 59 -38 10 -104 21 -198 31 -172 18 -203 22 -255 32 -19 4 -37
8 -40 8 -160 41 -214 105 -215 255 0 78 3 91 35 155 89 178 334 344 610 415
47 12 96 24 110 26 14 2 35 6 46 9 12 3 52 8 90 11 38 3 70 7 72 9 9 8 342 3
373 -5z m-2310 -988 c21 -56 -27 -165 -155 -352 -150 -219 -164 -264 -55 -184
67 49 174 142 433 378 52 48 160 133 183 145 12 6 28 8 36 5 20 -7 39 -55 39
-98 0 -52 -25 -90 -155 -239 -39 -45 -88 -146 -82 -171 2 -11 6 -33 9 -48 8
-36 43 -68 75 -68 33 1 95 29 162 74 83 55 91 43 17 -28 -147 -141 -289 -236
-376 -251 -131 -22 -123 112 23 376 73 132 99 195 85 204 -24 15 -83 -36 -345
-294 -115 -113 -229 -221 -252 -239 l-42 -33 -26 27 c-39 39 -31 70 62 264 96
198 110 239 94 269 -15 26 -25 26 -64 0 -55 -37 -268 -262 -362 -381 -49 -63
-100 -123 -113 -132 -21 -16 -25 -16 -47 -2 -75 49 -109 260 -60 371 92 209
249 388 341 388 52 0 59 -13 35 -67 -11 -26 -26 -53 -33 -60 -7 -8 -29 -33
-47 -56 -19 -23 -41 -48 -47 -55 -7 -7 -36 -42 -63 -79 -54 -71 -66 -121 -37
-158 12 -17 17 -15 62 19 27 21 67 53 88 73 46 41 157 144 195 180 215 204
324 278 383 258 17 -6 34 -22 39 -36z"/>
</g>
</svg>
