<?xml version="1.0" standalone="no"?>
<!DOCTYPE svg PUBLIC "-//W3C//DTD SVG 20010904//EN"
 "http://www.w3.org/TR/2001/REC-SVG-20010904/DTD/svg10.dtd">
<svg version="1.0" xmlns="http://www.w3.org/2000/svg"
 width="693.000000pt" height="693.000000pt" viewBox="0 0 693.000000 693.000000"
 preserveAspectRatio="xMidYMid meet">
<metadata>
Created by potrace 1.11, written by Peter Selinger 2001-2013
</metadata>
<g transform="translate(0.000000,693.000000) scale(0.100000,-0.100000)"
fill="#000000" stroke="none">
<path d="M6075 6044 c-215 -33 -483 -93 -830 -185 -250 -67 -428 -110 -588
-145 -43 -9 -76 -18 -73 -21 2 -3 29 0 58 7 29 6 64 14 77 16 14 3 106 25 205
50 100 25 188 47 196 49 9 1 87 22 175 45 88 23 166 44 175 45 8 2 60 15 115
29 146 37 376 83 488 97 53 7 97 16 97 21 0 4 -1 7 -2 7 -2 -1 -43 -7 -93 -15z"/>
<path d="M6200 6054 c0 -5 29 -9 65 -8 81 1 191 -12 230 -27 138 -54 213 -162
167 -241 -20 -34 -91 -65 -166 -74 -31 -4 -56 -10 -56 -14 0 -13 119 10 166
31 25 12 55 36 66 53 59 95 -63 238 -233 271 -54 11 -239 17 -239 9z"/>
<path d="M1995 5913 c-37 -4 -213 -33 -275 -43 -25 -5 -124 -27 -220 -50 -96
-22 -182 -43 -190 -45 -8 -1 -100 -26 -205 -53 -380 -101 -785 -192 -854 -192
-45 0 -122 -33 -155 -66 -33 -33 -57 -96 -42 -111 3 -4 6 4 6 16 0 33 26 77
62 104 36 26 93 43 178 53 30 3 73 9 95 14 22 5 55 12 73 15 71 12 488 112
522 125 14 5 36 12 50 14 43 8 61 13 205 51 77 21 165 43 195 50 30 7 107 24
170 38 255 57 372 73 530 71 140 -2 206 -17 278 -64 60 -38 112 -106 112 -144
0 -43 -31 -84 -78 -104 -60 -25 -93 -31 -222 -37 -189 -9 -305 -17 -312 -21
-5 -3 -8 1 -8 8 0 10 -2 10 -9 -1 -5 -8 -16 -11 -24 -8 -8 3 -18 3 -21 0 -3
-4 -18 -8 -33 -9 -16 -2 -48 -6 -73 -10 -25 -4 -60 -7 -77 -8 -18 -1 -33 -3
-33 -6 0 -5 -42 -11 -97 -14 -18 0 -33 -4 -33 -7 0 -12 -49 -16 -61 -5 -8 7
-10 7 -6 0 4 -6 -28 -17 -86 -27 -51 -10 -103 -20 -116 -24 -19 -5 -22 -3 -17
8 5 8 2 8 -6 -2 -7 -9 -25 -15 -40 -15 -14 1 -24 -2 -21 -7 3 -5 -3 -8 -13 -6
-11 1 -30 -3 -44 -8 -18 -8 -29 -7 -39 1 -10 7 -13 8 -8 0 4 -7 -23 -19 -76
-34 -45 -12 -124 -37 -176 -56 -52 -18 -97 -31 -102 -29 -4 3 -9 2 -11 -3 -1
-4 -33 -22 -69 -39 -102 -50 -109 -59 -116 -145 -3 -40 -11 -76 -17 -80 -8 -6
-8 -8 0 -8 9 0 6 -57 -5 -87 -2 -5 -2 -7 -7 -121 -3 -63 -9 -125 -14 -138 -7
-17 -6 -24 3 -24 13 0 20 63 21 195 1 39 4 72 7 75 4 3 10 46 14 95 7 99 15
156 21 167 3 4 33 23 68 43 106 59 292 122 516 174 234 55 254 59 300 66 25 4
63 10 85 15 22 5 60 11 85 15 25 3 68 10 95 15 68 12 116 19 189 26 33 3 63 8
66 9 4 2 62 6 130 10 335 15 390 26 446 81 28 29 32 39 30 79 -2 33 -11 55
-32 83 -42 51 -127 107 -188 121 -51 13 -263 22 -321 14z"/>
<path d="M4521 5689 c-25 -5 -63 -11 -85 -14 -78 -11 -93 -15 -127 -29 -108
-45 -130 -121 -94 -330 11 -63 15 -123 11 -165 -3 -36 -8 -118 -12 -181 -3
-63 -9 -159 -13 -212 -4 -54 -4 -98 0 -98 3 0 9 62 13 138 4 75 9 160 11 187
16 192 16 245 0 334 -45 262 -8 313 258 352 48 7 87 16 87 21 0 4 -1 8 -2 7
-2 -1 -23 -5 -47 -10z"/>
<path d="M6367 5694 c-2 -1 -247 -14 -269 -14 -5 0 -8 -4 -8 -9 0 -6 15 -8 33
-6 90 12 120 14 210 15 53 0 97 3 97 8 0 5 -56 11 -63 6z"/>
<path d="M5990 5665 c-47 -7 -107 -15 -135 -19 -27 -4 -86 -13 -130 -21 -203
-35 -297 -54 -303 -60 -8 -8 7 -6 93 11 106 21 105 20 220 40 55 9 109 18 120
20 11 2 66 9 122 16 57 6 103 15 103 20 0 4 -1 8 -2 7 -2 -1 -41 -7 -88 -14z"/>
<path d="M1796 5563 c-6 -14 -5 -15 5 -6 7 7 10 15 7 18 -3 3 -9 -2 -12 -12z"/>
<path d="M5235 5525 c-305 -78 -464 -139 -574 -221 -4 -3 -5 -17 -16 -159 -4
-49 -9 -97 -10 -105 -1 -8 -6 -67 -10 -130 -4 -63 -9 -122 -10 -131 -2 -9 -6
-67 -10 -130 -3 -63 -8 -124 -11 -137 -3 -13 -5 -52 -5 -88 -1 -35 -4 -64 -7
-64 -4 0 -7 -28 -8 -63 -1 -60 -11 -242 -14 -242 0 0 -2 -30 -4 -67 -2 -38 0
-68 4 -68 4 0 8 28 10 63 1 34 3 78 5 97 1 19 6 87 10 150 4 63 8 117 10 120
1 3 6 68 10 145 3 77 8 151 10 165 2 14 6 66 9 115 4 50 8 110 11 135 3 25 7
79 10 120 5 71 11 135 21 225 5 49 11 55 104 103 66 34 318 124 382 136 12 2
52 12 88 21 65 17 75 19 138 31 17 3 32 10 32 15 0 5 -1 9 -2 8 -2 0 -79 -20
-173 -44z"/>
<path d="M1400 5550 c-12 -7 -10 -9 7 -7 12 0 19 5 17 9 -6 10 -6 10 -24 -2z"/>
<path d="M1620 5530 c-9 -6 -10 -10 -3 -10 6 0 15 5 18 10 8 12 4 12 -15 0z"/>
<path d="M1195 5509 c-3 -4 2 -6 10 -5 21 3 28 13 10 13 -9 0 -18 -4 -20 -8z"/>
<path d="M1493 5513 c4 -3 1 -13 -6 -22 -11 -14 -10 -14 5 -2 16 12 16 31 1
31 -4 0 -3 -3 0 -7z"/>
<path d="M1215 5470 c-3 -5 -1 -10 4 -10 6 0 11 5 11 10 0 6 -2 10 -4 10 -3 0
-8 -4 -11 -10z"/>
<path d="M1090 5430 c0 -5 5 -10 11 -10 5 0 7 5 4 10 -3 6 -8 10 -11 10 -2 0
-4 -4 -4 -10z"/>
<path d="M827 5369 c7 -7 15 -10 18 -7 3 3 -2 9 -12 12 -14 6 -15 5 -6 -5z"/>
<path d="M754 5339 c-3 -6 -2 -15 3 -20 5 -5 9 -1 9 11 0 23 -2 24 -12 9z"/>
<path d="M52 5274 c4 -36 11 -87 16 -113 4 -25 8 -65 8 -88 -1 -24 2 -43 7
-43 11 0 8 57 -8 150 -8 47 -15 102 -15 123 0 20 -4 37 -8 37 -5 0 -5 -30 0
-66z"/>
<path d="M75 5010 c-3 -5 -1 -10 4 -10 6 0 11 5 11 10 0 6 -2 10 -4 10 -3 0
-8 -4 -11 -10z"/>
<path d="M3520 4985 c-13 -14 -22 -27 -19 -28 2 -2 38 -21 79 -42 144 -72 295
-195 320 -260 34 -89 0 -107 -187 -100 -76 2 -147 7 -159 9 -11 2 -47 7 -80
10 -32 4 -84 11 -114 16 -30 5 -84 12 -120 16 -36 4 -74 8 -85 10 -59 8 -109
15 -185 24 -47 6 -100 13 -117 16 -76 10 -102 13 -188 24 -49 6 -101 13 -115
16 -70 11 -187 19 -285 18 -142 -2 -214 -27 -259 -91 -85 -122 -9 -320 204
-533 167 -167 337 -288 595 -422 136 -71 146 -78 105 -73 -44 4 -100 10 -202
20 -133 13 -165 16 -193 20 -283 37 -462 10 -514 -76 -21 -34 -25 -31 -35 22
-6 33 -12 39 -74 67 -120 55 -256 74 -378 53 -33 -6 -75 -13 -94 -16 -66 -11
-155 -37 -355 -102 -301 -98 -419 -128 -558 -139 -53 -5 -73 -2 -93 10 -13 9
-23 20 -20 24 2 4 7 70 11 147 4 77 8 152 10 166 2 14 6 81 10 150 3 68 8 131
11 140 8 28 -27 33 -50 7 l-21 -22 21 17 c29 24 34 22 34 -19 0 -24 -4 -33
-12 -28 -7 5 -8 3 -2 -7 11 -18 16 -52 7 -46 -5 3 -7 -24 -6 -59 1 -35 -3 -65
-8 -65 -19 -3 -24 -5 -36 -12 -7 -5 -13 -14 -13 -20 0 -8 4 -7 9 2 5 8 18 16
30 18 14 2 19 -3 18 -17 -1 -11 -5 -20 -10 -20 -4 0 -5 -4 -2 -10 3 -5 0 -10
-7 -10 -8 0 -9 -3 -3 -8 6 -4 12 -27 13 -52 2 -33 0 -41 -7 -30 -7 9 -11 10
-11 3 0 -6 5 -15 10 -18 6 -4 8 -14 6 -23 -3 -10 -6 -46 -7 -80 -1 -40 -5 -59
-10 -50 -7 10 -9 9 -9 -4 0 -10 4 -18 10 -18 6 0 6 -9 0 -25 -7 -19 -6 -25 5
-25 8 0 19 -9 25 -20 6 -11 15 -18 21 -15 5 4 9 2 9 -4 0 -5 -6 -12 -12 -14
-10 -4 -10 -6 0 -6 7 -1 15 5 18 12 2 7 23 14 44 15 33 2 40 0 40 -15 0 -15
-2 -16 -10 -3 -6 10 -10 11 -10 3 0 -7 -5 -13 -11 -13 -5 0 -7 5 -4 10 3 6 1
10 -5 10 -7 0 -10 -6 -7 -12 2 -7 12 -12 21 -12 9 1 15 -3 13 -10 -5 -12 -40
-9 -45 5 -2 5 -8 9 -13 9 -5 0 -4 -9 3 -19 7 -11 18 -17 27 -13 14 5 14 3 2
-11 -11 -13 -11 -17 -1 -17 8 0 10 -3 6 -7 -4 -5 -13 -8 -19 -8 -6 0 -17 -11
-23 -24 -7 -13 -18 -28 -26 -33 -10 -8 -10 -9 2 -5 8 2 21 14 27 28 7 13 13
20 13 15 0 -5 7 -3 16 4 13 11 19 9 40 -12 l25 -25 -30 0 c-24 0 -28 3 -20 14
8 9 8 13 0 13 -6 0 -11 -5 -11 -11 0 -5 -4 -7 -10 -4 -17 10 -11 -7 8 -22 15
-13 14 -14 -13 -9 -23 5 -26 4 -14 -4 10 -5 31 -8 48 -6 17 2 34 0 36 -4 7
-11 -22 -20 -42 -14 -15 5 -15 4 -3 -5 8 -5 11 -13 7 -17 -4 -4 -18 3 -31 15
-24 22 -56 26 -58 6 -1 -5 -8 -16 -17 -23 -14 -11 -13 -11 7 -2 12 6 20 15 17
21 -4 5 4 9 16 9 22 0 22 0 3 -22 l-19 -23 21 18 c21 17 22 17 47 -13 15 -17
24 -37 20 -46 -3 -8 3 -22 13 -30 18 -15 18 -15 -7 -10 -17 4 -30 -1 -42 -14
-22 -26 -41 -25 -55 3 -6 12 -11 16 -11 9 -1 -7 -6 -10 -13 -6 -7 4 -8 3 -4
-5 4 -6 12 -9 17 -6 5 4 9 1 9 -4 0 -20 -4 -26 -17 -23 -7 2 -13 -3 -13 -10 0
-9 -3 -9 -11 2 -9 13 -10 12 -5 -2 3 -10 1 -18 -4 -18 -6 0 -10 -14 -10 -31 0
-17 -4 -28 -10 -24 -7 4 -7 -2 -1 -18 6 -14 8 -27 6 -29 -8 -8 -16 -211 -16
-448 -1 -344 0 -380 9 -380 4 0 7 156 7 348 0 191 3 390 7 442 4 52 7 103 8
113 1 64 899 330 1193 354 78 6 171 -9 232 -39 l43 -21 56 23 c31 12 54 25 51
29 -2 4 6 7 17 6 14 -1 25 -11 29 -26 27 -96 108 -214 226 -330 130 -127 297
-249 526 -384 53 -32 97 -60 97 -62 0 -5 -132 4 -181 12 -13 2 -51 6 -84 9
-33 3 -96 9 -140 13 -44 4 -136 8 -205 8 -115 0 -129 -2 -169 -25 -61 -34 -83
-68 -89 -134 -8 -98 57 -206 220 -367 153 -151 289 -239 369 -239 34 0 89 31
89 49 0 5 -29 23 -65 40 -207 102 -345 246 -306 319 20 37 137 47 321 27 30
-3 76 -8 103 -10 26 -3 71 -7 100 -10 28 -3 72 -8 97 -10 25 -2 68 -7 95 -9
28 -3 75 -8 105 -11 55 -5 103 -10 195 -20 115 -11 145 -14 240 -24 55 -6 129
-13 165 -16 36 -4 76 -8 90 -10 14 -2 59 -7 100 -10 41 -4 82 -8 90 -10 25 -4
174 -18 191 -17 11 0 18 -18 26 -76 14 -95 34 -185 39 -180 2 3 -5 49 -15 104
-11 54 -25 153 -32 219 -7 66 -15 123 -19 128 -3 4 -3 -25 2 -65 4 -40 6 -73
4 -75 -1 -2 -29 55 -60 126 -64 144 -53 135 -176 146 -36 4 -83 8 -105 10 -22
2 -69 7 -105 10 -36 3 -81 7 -100 10 -19 2 -64 7 -100 10 -200 19 -403 81
-635 195 -289 142 -525 321 -584 443 -32 67 -32 131 1 164 40 40 105 52 256
48 73 -3 136 -6 140 -9 7 -4 120 -16 377 -41 33 -3 76 -8 95 -10 33 -4 89 -9
200 -20 25 -2 65 -7 90 -9 25 -3 69 -8 98 -11 74 -7 151 -15 192 -20 19 -2 69
-7 110 -10 41 -3 91 -8 110 -10 19 -2 64 -7 100 -11 36 -3 66 -7 67 -8 2 -1 3
-156 3 -344 1 -188 4 -342 8 -342 4 0 7 154 7 342 0 269 3 342 13 340 16 -3
15 8 -3 51 -8 19 -12 44 -10 56 2 11 0 21 -6 21 -5 0 -9 -6 -9 -12 0 -7 -21
34 -47 92 -25 58 -47 106 -47 106 -1 1 -32 5 -71 8 -38 4 -86 9 -105 11 -19 3
-64 7 -99 10 -35 2 -78 7 -95 9 -17 3 -58 8 -91 11 -329 30 -599 125 -911 318
-244 151 -376 286 -398 408 -17 96 45 141 196 140 51 -1 102 -3 113 -5 11 -2
56 -7 99 -11 43 -4 86 -8 95 -10 9 -1 47 -6 86 -10 38 -4 72 -8 75 -10 3 -1
36 -6 75 -10 38 -4 72 -8 75 -10 3 -1 36 -6 75 -10 38 -4 72 -8 75 -10 3 -1
32 -5 65 -9 33 -3 70 -8 82 -10 12 -3 46 -7 75 -10 29 -4 69 -8 88 -10 179
-21 234 -25 340 -27 147 -2 204 14 254 68 l25 26 -6 -204 c-3 -112 -3 -202 -1
-199 3 3 8 100 12 215 9 290 16 445 21 479 2 17 0 25 -5 20 -5 -5 -10 -45 -12
-89 l-3 -80 -27 51 c-39 75 -99 148 -201 247 -210 204 -371 282 -437 212z
m-1790 -1320 c0 -2 -9 -3 -19 -2 -11 0 -18 5 -15 9 4 6 34 0 34 -7z m70 -11
c0 -8 -19 -13 -24 -6 -3 5 1 9 9 9 8 0 15 -2 15 -3z m45 -4 c3 -5 1 -10 -4
-10 -6 0 -11 5 -11 10 0 6 2 10 4 10 3 0 8 -4 11 -10z m-78 -25 c0 -8 -4 -12
-9 -9 -5 3 -6 10 -3 15 9 13 12 11 12 -6z m83 -19 c0 -2 -8 -10 -17 -17 -16
-13 -17 -12 -4 4 13 16 21 21 21 13z m100 -17 c0 -6 -4 -7 -10 -4 -5 3 -10 11
-10 16 0 6 5 7 10 4 6 -3 10 -11 10 -16z m-68 -8 c15 -18 15 -20 0 -26 -9 -3
-13 -3 -10 1 4 4 3 15 -3 25 -13 24 -8 24 13 0z m40 -27 c-6 -12 -9 -7 -9 16
0 23 3 28 9 16 5 -9 5 -23 0 -32z m-116 1 c-1 -8 -5 -17 -8 -21 -5 -4 -4 16 1
34 3 9 9 -1 7 -13z m-716 -10 c0 -2 -9 -3 -19 -2 -11 0 -18 5 -15 9 4 6 34 0
34 -7z m866 3 c4 -7 3 -8 -4 -4 -19 11 -14 -5 6 -21 15 -13 15 -13 -5 -3 -23
11 -28 21 -16 33 9 9 11 9 19 -5z m-941 -18 c3 -6 -1 -7 -9 -4 -18 7 -21 14
-7 14 6 0 13 -4 16 -10z m875 -10 c-24 -15 -36 -11 -14 4 10 8 21 12 24 10 2
-3 -2 -9 -10 -14z m-955 -30 l20 -25 -22 19 c-13 11 -23 24 -23 29 0 6 1 8 3
6 1 -2 11 -15 22 -29z m30 21 c-3 -2 1 -11 7 -20 8 -10 3 -8 -12 4 -14 11 -27
21 -29 22 -2 1 6 1 17 0 12 0 19 -3 17 -6z m965 -1 c0 -5 -4 -10 -10 -10 -5 0
-10 5 -10 10 0 6 5 10 10 10 6 0 10 -4 10 -10z m-1040 -24 c-7 -7 -14 -6 -21
1 -9 9 -7 12 9 10 14 -1 18 -5 12 -11z m1063 7 c-20 -7 -15 -23 5 -17 14 5 15
4 2 -5 -8 -6 -19 -6 -24 -1 -10 10 1 30 17 29 9 0 9 -2 0 -6z m-50 -24 c-8 -8
-13 -7 -18 2 -5 8 -4 10 3 5 7 -4 12 -2 12 5 0 7 3 9 7 6 4 -4 2 -12 -4 -18z
m-1135 -14 c-3 -3 -9 2 -12 12 -6 14 -5 15 5 6 7 -7 10 -15 7 -18z m45 11 c16
-12 16 -14 1 -20 -23 -9 -34 -7 -34 4 0 5 8 7 18 4 14 -5 14 -3 -2 10 -24 19
-8 21 17 2z m52 -7 c-4 -5 -12 -9 -18 -8 -9 0 -8 2 1 6 6 2 9 10 6 15 -4 7 -2
8 5 4 6 -4 9 -12 6 -17z m-84 -29 c6 0 7 -4 4 -10 -3 -5 -1 -10 4 -10 6 0 11
6 12 13 0 9 2 9 6 -1 2 -6 8 -10 13 -7 5 3 7 -3 6 -12 -2 -9 -9 -19 -17 -21
-11 -3 -11 -1 1 7 8 6 11 11 5 12 -5 1 -16 2 -23 3 -7 0 -16 7 -21 15 -6 9
-11 10 -15 2 -4 -6 2 -16 13 -23 16 -10 18 -15 8 -27 -10 -12 -8 -13 11 -7 23
8 23 7 -2 -17 -30 -30 -26 -72 5 -62 11 4 19 3 19 -2 0 -5 -9 -9 -20 -10 -14
-1 -24 7 -31 24 -5 14 -12 23 -15 20 -3 -3 0 -18 8 -34 9 -19 20 -27 33 -25
15 2 17 1 6 -7 -11 -7 -9 -11 8 -21 17 -9 26 -9 37 1 10 8 18 9 25 2 8 -8 7
-13 -2 -18 -8 -5 -10 -4 -5 3 4 7 2 12 -4 12 -6 0 -13 -7 -16 -15 -5 -12 -9
-13 -21 -3 -11 9 -16 9 -23 -2 -4 -7 -19 -14 -32 -16 -12 -1 -25 -3 -28 -3 -3
-1 2 -6 10 -11 11 -8 7 -9 -16 -5 -23 3 -34 1 -38 -11 -3 -8 -10 -13 -15 -9
-5 3 -12 1 -16 -5 -4 -6 -11 -8 -16 -5 -5 4 -9 2 -9 -3 0 -6 -9 -8 -20 -5 -11
3 -20 1 -20 -5 0 -16 -30 -23 -51 -11 -11 6 -18 16 -16 22 2 7 0 21 -6 31 -8
16 -5 23 13 38 34 27 45 22 13 -7 -15 -13 -22 -25 -15 -25 7 0 10 -4 7 -10 -3
-5 -1 -10 6 -10 8 0 7 -5 -2 -17 -13 -16 -12 -17 3 -5 10 8 19 9 22 3 3 -5 0
-12 -6 -14 -9 -4 -10 -6 -1 -6 6 -1 18 7 25 17 7 10 22 18 33 18 11 0 19 5 18
12 -4 15 13 16 20 2 3 -6 4 -5 3 2 -2 7 -10 12 -19 12 -9 -1 -14 3 -10 9 4 6
1 7 -6 2 -10 -6 -11 -3 -2 14 10 18 9 20 -6 14 -10 -3 -23 -10 -30 -15 -8 -7
-11 -3 -10 11 1 16 7 20 24 17 12 -3 25 0 29 5 3 5 10 7 15 4 5 -4 9 -1 9 4 0
6 -6 11 -12 11 -9 0 -8 4 2 10 10 6 11 10 3 10 -7 0 -13 5 -13 11 0 8 4 8 14
0 8 -7 17 -8 20 -3 3 6 -1 15 -9 22 -8 7 -12 16 -9 21 3 5 0 9 -6 9 -7 0 -9
-7 -5 -17 5 -15 4 -16 -7 -5 -11 11 -9 17 12 33 15 11 18 17 8 13 -11 -4 -18
-1 -18 6 0 6 4 9 9 5 5 -3 13 0 17 6 5 8 3 9 -6 4 -9 -5 -11 -4 -6 4 5 7 2 10
-6 9 -7 -2 -13 4 -12 13 1 10 -8 15 -27 15 -22 0 -26 -2 -17 -13 13 -17 -3
-17 -22 0 -11 9 -11 8 0 -7 14 -18 13 -19 -3 -13 -11 4 -16 3 -12 -4 4 -6 13
-8 21 -5 8 3 11 0 8 -9 -6 -14 -24 -16 -34 -4 -3 4 -12 0 -20 -9 -13 -14 -12
-15 3 -9 20 8 22 -3 5 -23 -11 -12 -10 -12 5 0 16 12 18 12 17 -1 -5 -34 -1
-42 15 -29 13 11 14 10 9 -4 -3 -9 -1 -16 6 -16 6 0 9 4 5 9 -3 6 4 9 15 8 21
-1 35 -23 20 -32 -6 -4 -10 -1 -10 5 0 6 -8 9 -18 5 -20 -6 -66 24 -82 55 -8
14 -4 28 17 59 15 23 29 41 32 42 3 0 15 2 26 5 11 2 31 5 45 7 14 2 32 7 39
12 10 5 12 4 7 -3 -4 -7 -2 -12 5 -12 8 0 9 -3 0 -13 -9 -11 -3 -14 27 -13 35
1 38 5 34 36 -1 5 -10 7 -19 4 -15 -5 -15 -4 -3 5 11 7 19 5 33 -10 10 -10 22
-19 28 -19z m149 25 c0 -11 -29 -11 -33 -1 -4 10 1 12 14 9 10 -3 19 -7 19 -8z
m-214 -15 c21 0 17 -16 -4 -17 -12 -1 -18 6 -19 20 0 12 1 16 4 10 3 -7 11
-13 19 -13z m1174 -15 c0 -5 -5 -3 -10 5 -5 8 -10 20 -10 25 0 6 5 3 10 -5 5
-8 10 -19 10 -25z m40 24 c0 -5 -4 -7 -10 -4 -5 3 -10 1 -10 -6 0 -7 -3 -10
-6 -6 -8 7 4 27 17 27 5 0 9 -5 9 -11z m-1042 -24 c-3 -3 -9 2 -12 12 -6 14
-5 15 5 6 7 -7 10 -15 7 -18z m1067 15 c-3 -5 0 -10 7 -10 10 0 9 -3 -2 -9
-20 -13 -34 -2 -19 15 13 16 23 19 14 4z m-1090 -20 c0 -7 -6 -14 -13 -16 -7
-1 -8 0 -2 3 5 2 10 9 10 14 0 6 -4 8 -8 5 -4 -2 -14 0 -22 5 -11 7 -8 8 10 6
14 -2 25 -10 25 -17z m101 -15 c-1 -8 -5 -17 -8 -21 -4 -3 -5 2 -4 13 2 10 -2
25 -8 33 -9 13 -9 13 6 2 9 -7 15 -19 14 -27z m885 22 c-6 -8 -9 -17 -6 -20 3
-4 2 -5 -2 -2 -3 3 -11 0 -18 -5 -8 -7 -12 -5 -12 5 0 8 4 12 8 10 3 -3 12 2
19 10 7 8 15 15 17 15 3 0 0 -6 -6 -13z m-1236 -24 c11 -26 12 -46 1 -60 -5
-8 -4 -19 3 -27 10 -11 9 -14 -1 -12 -7 1 -18 5 -25 9 -6 4 -19 4 -30 1 -17
-7 -17 -6 0 12 15 17 19 17 28 4 9 -12 10 -12 5 3 -4 12 -2 16 6 11 7 -4 8 -3
4 4 -5 9 -13 9 -26 2 -24 -13 -30 -13 -30 0 0 6 3 9 8 9 21 -4 32 2 26 13 -5
8 -2 9 9 5 9 -3 19 -2 22 4 4 5 1 8 -5 7 -7 -2 -14 5 -15 15 -2 9 0 17 5 17 4
0 11 -8 15 -17z m318 -3 c3 -11 1 -18 -4 -14 -5 3 -9 12 -9 20 0 20 7 17 13
-6z m992 10 c3 -5 1 -10 -4 -10 -6 0 -11 5 -11 10 0 6 2 10 4 10 3 0 8 -4 11
-10z m-1038 -17 c-4 -3 -2 -12 5 -20 6 -7 8 -16 4 -20 -3 -3 -6 -1 -6 6 0 7
-4 10 -8 7 -4 -2 -9 4 -9 15 -1 10 3 19 9 19 6 0 8 -3 5 -7z m179 -8 c-1 -8
-5 -17 -8 -21 -5 -4 -4 16 1 34 3 9 9 -1 7 -13z m839 6 c3 -6 -4 -15 -16 -21
-12 -7 -19 -8 -15 -2 3 6 0 13 -6 16 -7 3 -2 3 11 0 16 -4 21 -3 17 5 -4 6 -5
11 -2 11 3 0 7 -4 11 -9z m75 -8 c0 -3 -9 -3 -19 0 -13 3 -23 -3 -32 -19 -7
-13 -14 -22 -16 -20 -3 2 3 15 12 29 11 17 22 23 35 20 11 -3 20 -8 20 -10z
m-1123 -9 c-3 -3 -12 -4 -19 -1 -8 3 -5 6 6 6 11 1 17 -2 13 -5z m-22 -24 c-3
-5 -11 -10 -16 -10 -6 0 -7 5 -4 10 3 6 11 10 16 10 6 0 7 -4 4 -10z m-5 -56
c0 -7 8 -18 18 -24 11 -8 12 -10 2 -7 -8 2 -20 13 -26 25 -6 12 -14 19 -19 14
-5 -4 -5 -1 -1 6 4 6 2 12 -3 12 -6 0 -11 -5 -11 -12 0 -6 -2 -9 -5 -6 -3 3
-3 13 1 22 6 16 8 16 25 0 11 -9 19 -23 19 -30z m25 36 c-3 -5 -11 -10 -16
-10 -6 0 -7 5 -4 10 3 6 11 10 16 10 6 0 7 -4 4 -10z m54 -13 c0 -9 -2 -8 -6
1 -2 6 -10 9 -15 6 -7 -4 -8 -2 -4 5 9 13 26 5 25 -12z m-19 -14 c0 -3 -7 -2
-16 1 -12 4 -15 2 -10 -9 3 -8 1 -15 -4 -15 -11 0 -14 23 -4 33 6 6 34 -2 34
-10z m29 -17 c9 -10 8 -15 -3 -19 -11 -4 -13 -1 -9 10 5 12 3 14 -7 8 -9 -5
-11 -4 -6 3 9 15 11 15 25 -2z m105 -17 c3 -3 -4 -5 -14 -6 -11 -1 -22 2 -24
6 -5 8 30 8 38 0z m-494 -9 c0 -5 -4 -10 -10 -10 -5 0 -10 5 -10 10 0 6 5 10
10 10 6 0 10 -4 10 -10z m80 0 c3 -2 10 -1 15 0 5 1 6 -2 2 -6 -9 -9 -67 -14
-80 -7 -26 14 30 25 63 13z m280 -11 c0 -5 -4 -9 -8 -9 -5 0 -9 7 -9 15 0 8 4
12 9 9 4 -3 8 -9 8 -15z m-60 1 c0 -5 -4 -10 -10 -10 -5 0 -10 5 -10 10 0 6 5
10 10 10 6 0 10 -4 10 -10z m137 4 c-8 -8 -48 -13 -43 -6 2 4 14 8 26 9 12 1
20 0 17 -3z m-53 -22 c3 -5 -1 -9 -9 -9 -8 0 -12 4 -9 9 3 4 7 8 9 8 2 0 6 -4
9 -8z m-344 -43 c0 -6 -4 -7 -10 -4 -16 10 -11 -1 7 -16 11 -10 14 -10 9 -1
-4 6 -2 12 3 12 6 0 10 5 9 11 -2 6 3 13 10 15 7 1 8 0 2 -3 -6 -2 0 -13 12
-23 l23 -19 -22 4 c-14 2 -26 -3 -32 -12 -7 -14 -11 -12 -26 10 -9 14 -14 31
-10 37 7 12 25 4 25 -11z"/>
<path d="M633 3417 c-2 -15 0 -18 6 -9 6 11 10 10 16 -5 11 -25 12 -36 4 -48
-15 -20 1 -55 25 -55 7 0 7 3 1 8 -5 4 -11 14 -13 22 -1 8 6 4 17 -10 11 -13
18 -27 15 -31 -2 -4 3 -9 11 -13 26 -9 29 16 4 35 -13 10 -19 19 -14 19 6 0
-1 7 -15 15 -15 9 -19 14 -10 15 13 0 13 1 0 10 -11 7 -11 10 -2 10 7 0 10 5
6 12 -4 7 -3 8 5 4 6 -4 9 -11 6 -16 -3 -5 -1 -11 5 -15 5 -3 10 -2 10 3 0 14
39 22 47 10 3 -7 1 -8 -5 -4 -15 9 -16 -6 -1 -21 7 -7 6 -12 -5 -16 -10 -4
-13 -1 -10 7 3 7 -2 13 -10 13 -8 0 -14 -8 -13 -18 1 -13 8 -18 24 -17 13 2
24 5 24 8 6 25 5 57 -2 66 -5 6 -29 9 -54 8 -39 -2 -45 0 -40 15 3 11 -1 17
-13 18 -12 1 -18 -6 -19 -20z"/>
<path d="M674 3286 c-10 -8 -19 -23 -19 -33 0 -10 -5 -17 -11 -16 -19 3 -11
-29 13 -53 20 -20 28 -18 25 8 -1 3 5 9 14 12 8 3 12 2 9 -3 -9 -16 12 -22 25
-6 13 16 4 39 -11 29 -20 -12 -56 -11 -56 2 0 6 7 10 15 7 12 -5 12 -2 3 15
-14 26 -14 32 0 32 5 0 8 -4 5 -8 -2 -4 0 -14 5 -22 7 -12 11 -13 18 -2 7 11
9 11 14 -2 9 -22 28 -20 20 2 -5 14 -3 13 10 -3 9 -11 17 -15 17 -9 0 20 -25
34 -53 29 -22 -4 -25 -2 -22 15 5 24 4 24 -21 6z m-16 -68 c-2 -7 2 -12 8 -11
6 1 11 -5 11 -13 0 -12 -4 -11 -18 2 -10 9 -16 21 -13 25 8 13 14 11 12 -3z"/>
<path d="M750 3213 c0 -17 15 -16 30 1 9 12 8 15 -9 13 -12 -1 -21 -7 -21 -14z"/>
<path d="M69 4928 c-1 -35 -3 -74 -4 -88 -2 -25 -10 -163 -21 -360 -3 -58 -7
-111 -9 -117 -3 -7 0 -13 5 -13 6 0 10 33 11 73 0 39 2 79 3 87 2 8 6 71 10
140 12 237 17 315 21 328 3 6 0 12 -5 12 -6 0 -11 -28 -11 -62z"/>
<path d="M349 4653 c-13 -16 -12 -17 4 -4 16 13 21 21 13 21 -2 0 -10 -8 -17
-17z"/>
<path d="M459 4588 c-1 -18 -1 -39 0 -47 2 -7 -2 -11 -6 -8 -5 3 -7 -10 -5
-30 4 -28 2 -34 -9 -27 -11 6 -12 5 -4 -7 24 -32 11 -110 -15 -94 -4 3 -14 -3
-21 -12 -12 -15 -12 -16 1 -8 21 13 40 15 40 4 0 -6 4 -8 8 -5 5 3 10 32 11
64 1 33 5 92 10 131 4 39 4 71 -1 71 -4 0 -9 -15 -9 -32z"/>
<path d="M399 4563 c-13 -16 -12 -17 4 -4 9 7 17 15 17 17 0 8 -8 3 -21 -13z"/>
<path d="M315 4431 c-3 -5 -2 -12 3 -15 5 -3 9 1 9 9 0 17 -3 19 -12 6z"/>
<path d="M375 4430 c-3 -5 -1 -10 4 -10 6 0 11 5 11 10 0 6 -2 10 -4 10 -3 0
-8 -4 -11 -10z"/>
<path d="M39 4333 c0 -5 -2 -18 -5 -31 -2 -13 0 -21 5 -18 8 5 13 56 5 56 -2
0 -4 -3 -5 -7z"/>
<path d="M395 4329 c-3 -4 2 -6 10 -5 21 3 28 13 10 13 -9 0 -18 -4 -20 -8z"/>
<path d="M439 4313 c-1 -16 -3 -41 -5 -58 -10 -86 -11 -136 -3 -141 5 -3 9 10
9 28 0 18 3 70 7 116 3 45 3 82 -1 82 -3 0 -7 -12 -7 -27z"/>
<path d="M315 4309 c-3 -4 2 -6 10 -5 21 3 28 13 10 13 -9 0 -18 -4 -20 -8z"/>
<path d="M415 4300 c-4 -6 -11 -7 -17 -4 -7 4 -8 2 -4 -5 6 -9 11 -9 22 0 14
11 18 19 10 19 -3 0 -8 -5 -11 -10z"/>
<path d="M360 4296 c0 -2 8 -10 18 -17 15 -13 16 -12 3 4 -13 16 -21 21 -21
13z"/>
<path d="M335 4281 c-3 -5 -2 -12 3 -15 5 -3 9 1 9 9 0 17 -3 19 -12 6z"/>
<path d="M31 4198 c2 -77 6 -69 11 20 2 28 0 52 -4 52 -5 0 -7 -33 -7 -72z"/>
<path d="M399 4253 c0 -5 -2 -16 -4 -26 -2 -11 -1 -16 3 -13 8 8 14 46 7 46
-3 0 -5 -3 -6 -7z"/>
<path d="M386 4168 c3 -5 10 -6 15 -3 13 9 11 12 -6 12 -8 0 -12 -4 -9 -9z"/>
<path d="M400 4150 c-9 -6 -10 -10 -3 -10 6 0 15 5 18 10 8 12 4 12 -15 0z"/>
<path d="M22 3985 c-2 -75 -5 -151 -7 -170 -2 -19 1 -35 6 -35 5 0 9 48 9 108
1 59 3 135 5 170 3 34 1 62 -3 62 -4 0 -9 -61 -10 -135z"/>
<path d="M270 4090 c0 -5 5 -10 11 -10 5 0 7 5 4 10 -3 6 -8 10 -11 10 -2 0
-4 -4 -4 -10z"/>
<path d="M370 4051 c0 -6 4 -13 10 -16 6 -3 7 1 4 9 -7 18 -14 21 -14 7z"/>
<path d="M335 4011 c-2 -4 12 -7 30 -7 19 0 32 3 29 5 -7 8 -54 9 -59 2z"/>
<path d="M255 3991 c-3 -5 -2 -12 3 -15 5 -3 9 1 9 9 0 17 -3 19 -12 6z"/>
<path d="M374 3970 c0 -13 4 -16 10 -10 7 7 7 13 0 20 -6 6 -10 3 -10 -10z"/>
<path d="M307 3969 c7 -7 15 -10 18 -7 3 3 -2 9 -12 12 -14 6 -15 5 -6 -5z"/>
<path d="M360 3905 c-7 -9 -11 -17 -9 -20 3 -2 10 5 17 15 14 24 10 26 -8 5z"/>
<path d="M4163 3880 c0 -22 2 -40 6 -40 3 0 6 18 6 40 1 22 -2 40 -5 40 -3 0
-6 -18 -7 -40z"/>
<path d="M4549 3898 c0 -7 -2 -38 -3 -68 -15 -239 -16 -230 29 -257 11 -6 19
-15 18 -20 -1 -5 5 -10 12 -10 10 0 12 4 5 12 -7 9 -1 12 22 13 18 0 36 -5 40
-11 6 -9 8 -9 8 1 0 7 5 10 10 7 6 -3 10 -2 10 4 0 12 24 8 44 -8 8 -7 20 -10
25 -7 5 4 9 -3 8 -14 -1 -11 -8 -20 -17 -21 -10 0 -11 -2 -2 -6 22 -9 33 -40
16 -47 -10 -4 -14 0 -12 11 2 9 -3 18 -11 21 -11 3 -12 0 -6 -14 4 -11 7 -26
8 -34 0 -8 7 -23 15 -32 23 -27 0 -21 -31 7 -15 14 -27 22 -27 17 0 -6 11 -17
25 -26 16 -10 22 -22 18 -32 -8 -20 16 -35 42 -27 16 5 15 0 -8 -23 -16 -16
-24 -30 -18 -32 19 -6 12 -29 -11 -36 -32 -8 -38 -7 -38 5 0 5 4 7 10 4 5 -3
18 -1 27 5 16 9 15 10 -4 5 -14 -4 -23 -2 -23 4 0 6 3 11 8 11 4 0 13 9 20 21
8 12 9 18 3 14 -6 -3 -11 -1 -11 4 0 6 -5 11 -11 11 -8 0 -8 -4 -1 -12 7 -9 5
-19 -8 -35 -18 -22 -18 -22 -23 -2 -3 12 -10 18 -16 14 -6 -3 -11 -2 -11 2 0
5 -7 18 -15 29 -14 16 -14 15 0 -14 9 -18 19 -31 23 -28 5 3 13 -9 19 -25 11
-28 10 -30 -10 -23 -12 3 -19 3 -14 -2 4 -4 -27 -22 -68 -39 -87 -36 -102 -49
-107 -90 -1 -16 -7 -33 -13 -37 -7 -5 -6 -8 1 -8 7 0 8 -17 4 -50 -8 -60 -14
-807 -7 -800 3 3 8 185 11 405 5 373 8 458 21 511 3 15 30 31 107 61 88 35
330 117 378 129 8 1 79 21 156 43 144 41 369 94 459 108 28 4 91 7 140 7 86
-1 103 -4 201 -44 28 -12 37 -10 102 20 40 18 77 39 83 46 8 10 4 44 -16 127
l-26 115 -69 31 c-38 18 -97 38 -132 46 -61 13 -223 13 -278 1 -14 -3 -41 -9
-60 -12 -19 -4 -60 -13 -90 -21 -30 -8 -62 -16 -70 -18 -8 -2 -121 -37 -249
-79 -324 -105 -531 -146 -588 -115 l-26 14 7 144 c4 80 10 149 12 153 3 4 0 8
-5 8 -6 0 -11 -6 -12 -12z m1181 -88 c0 -5 -2 -10 -4 -10 -3 0 -8 5 -11 10 -3
6 -1 10 4 10 6 0 11 -4 11 -10z m31 -7 c13 -16 12 -17 -3 -4 -10 7 -18 15 -18
17 0 8 8 3 21 -13z m165 -1 c-10 -2 -22 0 -28 6 -6 6 0 7 19 4 21 -5 23 -7 9
-10z m-38 -17 c-3 -3 -9 2 -12 12 -6 14 -5 15 5 6 7 -7 10 -15 7 -18z m92 -19
c0 -12 -5 -7 -19 24 -11 24 -11 24 3 6 9 -11 16 -24 16 -30z m-115 13 c-4 -5
-14 -8 -23 -8 -15 1 -15 2 1 6 9 2 14 9 11 15 -4 7 -2 8 5 4 6 -4 9 -12 6 -17z
m149 6 c3 3 2 -1 -4 -7 -18 -21 -11 -32 9 -14 13 12 21 14 26 6 3 -5 9 -8 13
-6 4 2 16 -2 27 -10 10 -8 14 -14 9 -14 -6 0 -15 5 -22 12 -8 8 -12 8 -12 1 0
-12 30 -40 39 -35 3 2 7 -2 10 -9 2 -8 -2 -10 -13 -6 -12 5 -16 3 -13 -5 2 -7
10 -12 16 -10 11 2 12 -1 15 -35 1 -10 5 -24 10 -32 6 -9 5 -12 -1 -8 -6 4
-13 1 -16 -7 -3 -8 1 -13 11 -12 9 0 16 -5 14 -13 -1 -7 2 -18 7 -25 14 -17
-11 -45 -47 -52 -17 -3 -33 -12 -36 -20 -6 -16 -15 -17 -36 -4 -13 8 -12 12 8
25 12 9 22 23 22 31 0 8 4 14 10 14 5 0 6 8 3 17 -4 11 -8 12 -11 5 -2 -7 -8
-12 -14 -12 -6 0 -5 6 2 15 7 9 10 19 6 22 -4 4 -10 2 -14 -4 -5 -8 -12 -7
-26 3 -11 8 -16 14 -12 14 5 0 1 12 -9 26 -13 20 -14 28 -4 40 7 8 20 12 30 9
13 -4 19 -1 19 9 0 19 11 21 28 4 8 -8 12 -8 12 -1 0 6 -7 16 -15 23 -8 7 -15
10 -15 6 0 -4 -11 1 -26 10 -14 9 -23 22 -20 29 2 7 -1 19 -7 26 -10 11 -9 11
4 1 9 -6 19 -10 23 -7z m-224 1 c0 -2 -8 -10 -17 -17 -16 -13 -17 -12 -4 4 13
16 21 21 21 13z m27 -18 c-3 -8 -6 -5 -6 6 -1 11 2 17 5 13 3 -3 4 -12 1 -19z
m110 2 c1 -16 -1 -17 -12 -7 -11 10 -8 19 10 27 1 0 1 -9 2 -20z m64 -34 c16
-9 29 -23 29 -29 0 -7 -4 -6 -11 3 -8 11 -12 12 -16 3 -2 -7 -10 -13 -16 -13
-8 0 -8 3 1 12 9 9 5 17 -13 34 -14 13 -25 29 -24 36 0 7 5 4 10 -8 6 -11 24
-28 40 -38z m-468 19 c-3 -9 -8 -14 -10 -11 -3 3 -2 9 2 15 9 16 15 13 8 -4z
m379 1 c7 4 8 2 4 -5 -9 -13 -26 -5 -25 12 0 9 2 8 6 -1 2 -6 10 -9 15 -6z
m-475 -11 c0 -8 -4 -12 -9 -9 -5 3 -6 10 -3 15 9 13 12 11 12 -6z m219 3 c3
-4 -1 -5 -10 -4 -8 1 -18 5 -22 8 -3 4 1 5 10 4 8 -1 18 -5 22 -8z m124 -20
c0 -4 -4 -8 -9 -8 -6 0 -12 4 -15 8 -3 5 1 9 9 9 8 0 15 -4 15 -9z m100 2 c0
-8 -56 -8 -63 0 -3 3 10 5 29 6 19 0 34 -2 34 -6z m80 0 c0 -5 -4 -10 -10 -10
-5 0 -10 5 -10 10 0 6 5 10 10 10 6 0 10 -4 10 -10z m-683 -30 c1 -11 -2 -20
-7 -20 -6 0 -7 17 -1 38 3 8 7 -1 8 -18z m138 11 c-9 -8 -36 -10 -30 -2 2 4
11 8 20 8 8 0 13 -3 10 -6z m305 5 c0 -3 -4 -8 -10 -11 -5 -3 -10 -1 -10 4 0
6 5 11 10 11 6 0 10 -2 10 -4z m196 -8 c5 -7 3 -8 -6 -3 -9 5 -11 1 -6 -16 3
-13 3 -18 0 -11 -3 6 -10 9 -16 6 -6 -4 -5 2 1 15 13 24 17 25 27 9z m15 -21
c-10 -9 -11 -8 -5 6 3 10 9 15 12 12 3 -3 0 -11 -7 -18z m43 8 c3 -8 1 -15 -4
-15 -6 0 -10 7 -10 15 0 8 2 15 4 15 2 0 6 -7 10 -15z m-634 1 c0 -3 -4 -8
-10 -11 -5 -3 -10 -1 -10 4 0 6 5 11 10 11 6 0 10 -2 10 -4z m120 0 c0 -2 -7
-7 -16 -10 -8 -3 -12 -2 -9 4 6 10 25 14 25 6z m-280 -36 c-5 -10 -6 -20 -2
-24 3 -4 -2 -4 -12 0 -15 6 -17 4 -11 -6 6 -9 4 -11 -5 -5 -10 6 -10 11 3 20
19 14 23 30 5 19 -6 -4 -8 -3 -5 3 3 5 13 10 21 10 11 0 12 -5 6 -17z m780 -6
c0 -8 -4 -14 -10 -14 -5 0 -7 7 -4 15 5 11 1 14 -12 9 -15 -5 -16 -4 -4 4 17
13 30 6 30 -14z m-845 -3 c-3 -6 -11 -11 -16 -11 -5 0 -4 6 3 14 14 16 24 13
13 -3z m761 4 c-1 -8 -5 -17 -8 -21 -5 -4 -4 16 1 34 3 9 9 -1 7 -13z m-622
-4 c-8 -8 -34 -10 -38 -2 -3 4 6 7 19 7 14 0 22 -2 19 -5z m486 5 c0 -3 -4 -8
-10 -11 -5 -3 -10 -1 -10 4 0 6 5 11 10 11 6 0 10 -2 10 -4z m176 -8 c5 -7 3
-8 -6 -3 -10 6 -12 4 -6 -11 5 -14 4 -16 -5 -7 -6 6 -8 16 -5 22 9 14 13 14
22 -1z m-882 -10 c-12 -18 -13 -51 -3 -70 7 -12 4 -18 -11 -23 -11 -3 -20 -11
-20 -16 0 -12 6 -11 29 2 12 8 23 9 36 1 18 -9 17 -10 -5 -11 -71 -2 -77 -5
-61 -29 6 -10 10 -10 21 3 17 20 33 19 47 -5 12 -18 0 -40 -14 -26 -4 3 -1 6
6 6 7 0 9 5 5 12 -5 7 -11 5 -21 -7 -7 -11 -13 -14 -13 -9 0 6 5 15 12 22 9 9
9 12 1 12 -16 0 -28 -21 -25 -42 2 -9 -5 -19 -15 -22 -10 -3 -19 -15 -19 -26
0 -11 4 -19 9 -17 5 1 8 6 7 11 -2 10 20 26 35 26 6 0 3 -5 -5 -10 -13 -9 -13
-11 0 -20 13 -9 12 -10 -4 -8 -10 2 -21 -3 -24 -11 -3 -9 0 -11 8 -6 10 6 10
3 2 -11 -6 -11 -20 -20 -31 -20 -39 -3 -42 -4 -35 -16 6 -10 4 -10 -8 0 -13
10 -17 10 -22 -4 -4 -9 -9 -14 -13 -11 -3 4 -12 2 -20 -4 -7 -6 -13 -8 -13 -4
0 4 -7 2 -15 -5 -8 -7 -15 -9 -15 -6 0 4 -9 2 -19 -3 -28 -15 -37 16 -13 43
11 12 17 26 15 33 -3 9 2 9 21 0 13 -6 22 -15 19 -19 -2 -5 -8 -6 -12 -4 -4 3
-13 1 -21 -4 -13 -8 -12 -12 4 -27 17 -15 18 -16 7 -1 -11 15 -10 17 8 13 14
-2 19 0 15 7 -4 7 -3 8 4 4 12 -7 9 25 -4 46 -5 7 -3 8 6 3 9 -5 11 -4 6 3 -5
8 -1 10 11 6 15 -5 16 -4 3 5 -13 9 -13 11 0 12 8 1 19 1 24 0 5 -1 4 5 -4 13
-10 13 -10 16 0 16 9 0 9 4 -1 17 -12 14 -12 16 0 8 9 -5 12 -4 7 3 -4 6 -14
9 -24 6 -12 -4 -13 -3 -4 3 7 5 11 16 9 24 -2 8 -2 11 0 6 3 -4 9 -4 15 -1 7
4 1 14 -13 26 -23 18 -23 19 -2 13 12 -3 24 -1 28 5 3 6 12 7 18 4 9 -5 9 -3
0 6 -10 11 -15 11 -29 -1 -11 -9 -15 -9 -10 -2 5 9 2 11 -8 7 -9 -3 -16 -1
-16 6 0 6 4 9 9 5 5 -3 12 -2 15 3 2 4 -6 8 -19 8 -13 0 -22 -3 -20 -6 2 -3
-5 -6 -15 -6 -10 0 -16 5 -13 10 3 5 1 6 -6 2 -6 -4 -9 -11 -6 -16 3 -4 -2
-10 -10 -14 -8 -3 -17 -1 -20 4 -3 5 -12 7 -19 4 -8 -3 -17 0 -22 7 -5 9 -2
10 9 6 10 -4 17 -2 17 5 0 6 6 5 17 -3 11 -10 14 -10 9 -1 -4 7 -2 12 6 13 7
0 27 3 43 5 17 3 40 6 51 7 12 2 30 9 40 17 18 14 18 14 5 -2 -18 -24 2 -23
23 1 10 11 24 17 31 15 7 -3 16 -1 20 5 3 6 8 11 11 11 3 0 2 -6 -2 -12z m23
-2 c-7 -17 13 -36 40 -40 29 -5 24 -48 -7 -53 -18 -2 -21 -1 -10 6 8 5 18 7
22 5 4 -3 8 4 8 15 0 12 -3 20 -7 20 -30 -5 -65 23 -57 45 3 9 8 16 11 16 3 0
3 -6 0 -14z m49 -23 c-6 -6 -36 9 -36 18 0 5 9 4 20 -3 10 -7 18 -14 16 -15z
m40 -20 c-3 -4 -6 -1 -6 6 0 7 -4 10 -8 7 -4 -2 -9 5 -9 16 -2 21 -2 21 14 -1
8 -12 12 -25 9 -28z m674 37 c0 -4 -7 -7 -15 -6 -23 3 -26 12 -5 13 11 1 20
-2 20 -7z m155 0 c-3 -5 -1 -10 6 -10 7 0 10 -2 7 -5 -3 -3 -13 -2 -22 1 -14
5 -15 9 -4 15 17 11 20 11 13 -1z m-38 -15 c0 -8 -4 -15 -9 -15 -10 0 -11 14
-1 23 9 10 10 9 10 -8z m-732 -4 c-3 -2 -16 -6 -28 -8 -15 -2 -18 0 -9 5 14 9
45 12 37 3z m289 1 c3 -5 -1 -9 -9 -9 -8 0 -12 4 -9 9 3 4 7 8 9 8 2 0 6 -4 9
-8z m396 3 c0 -2 -6 -8 -13 -14 -10 -8 -14 -7 -14 2 0 8 6 14 14 14 7 0 13 -1
13 -2z m-831 -48 c0 -21 -1 -21 -9 -2 -12 28 -12 37 0 30 6 -3 10 -16 9 -28z
m741 23 c0 -5 -5 -10 -11 -10 -5 0 -7 5 -4 10 3 6 8 10 11 10 2 0 4 -4 4 -10z
m98 -10 c-7 -10 -14 -17 -17 -15 -4 4 18 35 25 35 2 0 -1 -9 -8 -20z m128 -17
c-6 -6 -46 20 -46 30 0 4 11 0 25 -9 14 -9 24 -19 21 -21z m-878 -8 c-3 -3 -9
2 -12 12 -6 14 -5 15 5 6 7 -7 10 -15 7 -18z m112 15 c0 -5 -2 -10 -4 -10 -3
0 -8 5 -11 10 -3 6 -1 10 4 10 6 0 11 -4 11 -10z m44 2 c3 -5 -1 -9 -9 -9 -8
0 -12 4 -9 9 3 4 7 8 9 8 2 0 6 -4 9 -8z m656 4 c0 -3 -4 -8 -10 -11 -5 -3
-10 -1 -10 4 0 6 5 11 10 11 6 0 10 -2 10 -4z m-1090 -17 c12 -8 9 -9 -10 -4
-16 4 -20 3 -13 -2 10 -7 10 -13 0 -27 -12 -16 -13 -15 -11 11 1 15 2 29 3 31
3 5 17 1 31 -9z m309 -2 c8 -10 7 -14 -2 -14 -8 0 -14 6 -14 14 0 7 1 13 2 13
2 0 8 -6 14 -13z m816 -8 c-8 -12 -35 -12 -35 1 0 5 7 6 17 3 12 -5 14 -3 8 7
-5 9 -4 11 4 6 6 -4 9 -12 6 -17z m-201 3 c3 -5 -1 -9 -9 -9 -8 0 -12 4 -9 9
3 4 7 8 9 8 2 0 6 -4 9 -8z m-970 -35 c-3 -9 -11 -14 -18 -10 -6 3 -7 2 -3 -3
5 -5 13 -10 18 -10 5 -1 12 -2 15 -3 3 0 -4 -10 -17 -22 -13 -11 -19 -18 -14
-15 6 2 16 -4 23 -15 15 -23 4 -25 -26 -4 -20 14 -21 14 -16 0 3 -8 13 -15 21
-15 13 0 13 -3 3 -15 -9 -10 -9 -15 -1 -15 6 0 11 5 11 11 0 8 5 7 15 -1 13
-11 14 -10 8 5 -5 15 -3 17 11 12 11 -5 15 -3 10 5 -5 7 -3 8 6 3 9 -5 11 -4
6 3 -5 8 -2 10 8 6 13 -5 11 -10 -9 -26 -14 -11 -23 -24 -20 -29 4 -5 2 -9 -4
-9 -5 0 -13 5 -16 11 -5 7 -13 5 -25 -6 -19 -17 -40 -13 -40 7 0 7 4 7 13 -1
19 -15 16 21 -3 45 -13 15 -12 18 7 31 18 12 20 19 13 34 -12 21 -10 41 5 51
14 10 27 -6 19 -25z m409 18 c-3 -9 -8 -14 -10 -11 -3 3 -2 9 2 15 9 16 15 13
8 -4z m704 -16 c-16 -22 -16 -22 -14 -1 0 11 5 18 9 16 4 -3 8 0 8 7 0 7 3 10
6 6 3 -3 -1 -16 -9 -28z m103 16 c0 -8 -2 -15 -4 -15 -2 0 -6 7 -10 15 -3 8
-1 15 4 15 6 0 10 -7 10 -15z m-1155 -21 c0 -10 -4 -25 -8 -31 -6 -8 -4 -15 7
-19 9 -3 16 -11 16 -16 0 -6 -7 -8 -15 -5 -8 4 -17 2 -20 -3 -10 -15 -23 -12
-34 9 -9 16 -8 18 8 14 11 -3 21 2 25 13 5 13 4 15 -7 5 -11 -9 -14 -8 -12 6
5 48 40 71 40 27z m255 14 c0 -6 -3 -8 -7 -5 -3 4 -12 -1 -20 -11 -13 -15 -13
-15 -3 6 11 23 30 30 30 10z m871 -25 c-11 -16 -11 -16 -6 4 5 19 3 22 -12 17
-15 -5 -15 -4 -3 5 21 14 35 -3 21 -26z m-824 11 c-3 -3 -12 -4 -19 -1 -8 3
-5 6 6 6 11 1 17 -2 13 -5z m767 -6 c-5 -7 -2 -9 9 -5 11 4 14 2 10 -9 -3 -7
-9 -14 -13 -14 -10 0 -20 26 -13 34 10 10 15 7 7 -6z m-834 -35 c0 -1 -5 -5
-12 -9 -6 -4 -8 -3 -5 3 4 6 0 13 -8 17 -8 3 -15 10 -15 16 0 5 9 2 20 -7 11
-10 20 -18 20 -20z m95 28 c3 -5 2 -12 -3 -15 -5 -3 -9 1 -9 9 0 17 3 19 12 6z
m-40 -9 c-3 -3 1 -12 7 -21 10 -12 7 -12 -8 2 -11 9 -24 14 -29 10 -4 -5 -5
-3 -2 3 3 6 13 11 22 11 8 0 13 -3 10 -5z m50 -22 c-3 -5 -12 -10 -18 -10 -7
0 -6 4 3 10 19 12 23 12 15 0z m51 -16 c1 -9 0 -13 -4 -10 -3 4 -7 14 -8 22
-1 9 0 13 4 10 3 -4 7 -14 8 -22z m724 22 c0 -3 -4 -8 -10 -11 -5 -3 -10 -1
-10 4 0 6 5 11 10 11 6 0 10 -2 10 -4z m-838 -20 c7 4 8 2 4 -5 -9 -13 -26 -5
-25 12 0 9 2 8 6 -1 2 -6 10 -9 15 -6z m-42 -21 c0 -2 -7 -1 -17 2 -11 4 -14
3 -9 -5 5 -8 1 -10 -10 -5 -11 4 -13 8 -6 11 7 2 9 8 6 14 -4 6 2 5 15 -1 11
-7 21 -14 21 -16z m-63 9 c-3 -3 -12 -4 -19 -1 -8 3 -5 6 6 6 11 1 17 -2 13
-5z m0 -46 c-3 -7 -5 -2 -5 12 0 14 2 19 5 13 2 -7 2 -19 0 -25z m46 -1 c4 3
7 4 7 0 0 -18 -21 -14 -30 5 -10 21 -10 21 3 6 8 -10 17 -15 20 -11z m42 12
c11 -16 1 -19 -13 -3 -7 8 -8 14 -3 14 5 0 13 -5 16 -11z m-65 -33 c0 -3 -4
-8 -10 -11 -5 -3 -10 -1 -10 4 0 6 5 11 10 11 6 0 10 -2 10 -4z"/>
<path d="M6024 3759 c-3 -6 -1 -16 5 -22 6 -6 11 -7 11 -2 0 4 10 0 22 -11 20
-18 20 -17 -2 14 -27 36 -26 36 -36 21z"/>
<path d="M6036 3684 c-4 -10 -12 -14 -23 -10 -25 10 -33 -13 -14 -45 11 -19
22 -27 33 -23 12 3 22 -4 32 -24 14 -27 13 -30 -9 -58 -26 -31 -31 -44 -16
-44 5 0 12 8 15 18 3 9 17 18 31 18 36 2 58 23 44 40 -6 7 -8 17 -5 22 3 6 -5
9 -18 8 -13 0 -22 -5 -18 -10 3 -5 -1 -6 -8 -1 -10 6 -9 11 4 21 12 8 14 14 5
19 -6 4 -15 2 -19 -4 -5 -9 -10 -8 -20 4 -11 13 -10 14 6 8 15 -5 17 -4 8 8
-21 28 -22 45 -3 45 10 0 16 -2 14 -5 -6 -5 15 -31 25 -31 3 0 7 7 7 15 0 8
-4 12 -8 10 -4 -3 -10 2 -13 11 -4 9 -9 14 -13 11 -3 -4 -12 -2 -18 3 -9 8
-14 6 -19 -6z m-16 -28 c0 -3 -4 -8 -10 -11 -5 -3 -10 -1 -10 4 0 6 5 11 10
11 6 0 10 -2 10 -4z m14 -20 c-3 -9 -10 -16 -15 -16 -5 0 -4 9 3 20 14 22 21
20 12 -4z m87 -83 c10 -11 10 -14 2 -9 -7 4 -13 3 -13 -1 0 -5 -9 -9 -19 -10
-18 -2 -19 0 -3 18 20 23 17 23 33 2z"/>
<path d="M6060 3651 c0 -10 39 -36 45 -29 2 2 -8 11 -21 21 -13 10 -24 13 -24
8z"/>
<path d="M4960 3605 c-13 -14 -26 -22 -29 -18 -10 14 -28 12 -28 -2 0 -7 6
-11 13 -8 7 2 18 -4 25 -16 10 -15 16 -17 26 -9 7 6 13 15 13 20 0 7 -5 6 -13
-1 -10 -8 -14 -7 -14 4 0 8 3 13 5 10 3 -3 10 2 16 10 9 13 11 10 13 -12 0
-15 -6 -33 -15 -40 -10 -7 -13 -13 -9 -13 4 0 3 -8 -2 -18 -7 -13 -6 -23 1
-30 9 -9 9 -12 -1 -12 -11 0 -11 -3 -1 -15 9 -10 9 -15 1 -15 -6 0 -11 5 -11
12 0 15 -13 1 -16 -17 -3 -19 0 -19 36 0 32 17 38 32 16 41 -18 7 -13 54 8 69
19 15 21 31 4 39 -10 5 -10 7 0 12 6 3 12 10 12 15 0 6 -4 8 -9 5 -5 -4 -11
-1 -13 5 -2 5 -14 -1 -28 -16z"/>
<path d="M4915 3539 c-4 -6 -4 -13 -1 -16 3 -3 1 -12 -5 -20 -8 -9 -8 -17 0
-26 6 -8 8 -17 4 -20 -3 -4 -2 -7 4 -7 14 0 37 29 30 37 -4 3 -2 14 3 24 8 14
6 21 -9 29 -14 7 -22 7 -26 -1z m20 -46 c-2 -10 -4 -20 -4 -22 -1 -3 -7 1 -13
7 -10 10 -10 15 2 22 19 12 19 13 15 -7z"/>
<path d="M4912 3423 c2 -11 -2 -17 -10 -15 -8 1 -11 -2 -7 -8 3 -5 0 -13 -9
-16 -17 -7 -17 -36 0 -52 10 -9 14 -7 19 8 4 11 11 20 16 20 6 0 7 -5 3 -11
-4 -8 -1 -8 12 -1 11 5 27 8 37 7 26 -5 21 12 -10 32 -33 21 -44 34 -37 45 3
4 0 8 -6 8 -6 0 -10 -8 -8 -17z m20 -43 c-2 -7 5 -9 20 -5 18 5 20 4 8 -4 -8
-6 -22 -8 -32 -5 -9 2 -19 0 -23 -6 -3 -6 -11 -8 -16 -4 -6 4 -3 14 7 25 18
20 41 20 36 -1z"/>
<path d="M4899 3373 c-13 -17 -13 -17 6 -3 11 8 22 16 24 17 2 2 0 3 -6 3 -6
0 -17 -8 -24 -17z"/>
<path d="M4950 3410 c0 -5 5 -10 10 -10 6 0 10 5 10 10 0 6 -4 10 -10 10 -5 0
-10 -4 -10 -10z"/>
<path d="M4795 3310 c3 -5 8 -10 11 -10 2 0 4 5 4 10 0 6 -5 10 -11 10 -5 0
-7 -4 -4 -10z"/>
<path d="M4849 3513 c-13 -16 -12 -17 4 -4 9 7 17 15 17 17 0 8 -8 3 -21 -13z"/>
<path d="M4840 3450 c-9 -6 -10 -10 -3 -10 6 0 15 5 18 10 8 12 4 12 -15 0z"/>
<path d="M379 3883 c-13 -16 -12 -17 4 -4 9 7 17 15 17 17 0 8 -8 3 -21 -13z"/>
<path d="M233 3865 c0 -8 4 -12 9 -9 5 3 6 10 3 15 -9 13 -12 11 -12 -6z"/>
<path d="M269 3853 c-13 -16 -12 -17 4 -4 9 7 17 15 17 17 0 8 -8 3 -21 -13z"/>
<path d="M4435 3851 c-3 -5 -2 -12 3 -15 5 -3 9 1 9 9 0 17 -3 19 -12 6z"/>
<path d="M4159 3698 c0 -73 -2 -146 -3 -161 -1 -16 2 -31 6 -33 4 -3 8 69 8
160 0 91 -2 166 -5 166 -3 0 -5 -60 -6 -132z"/>
<path d="M255 3790 c3 -5 8 -10 11 -10 2 0 4 5 4 10 0 6 -5 10 -11 10 -5 0 -7
-4 -4 -10z"/>
<path d="M355 3780 c-4 -6 -10 -8 -14 -6 -4 3 -8 -1 -8 -9 0 -13 4 -12 19 2
18 16 22 23 14 23 -3 0 -8 -5 -11 -10z"/>
<path d="M210 3769 c0 -5 5 -7 10 -4 6 3 10 8 10 11 0 2 -4 4 -10 4 -5 0 -10
-5 -10 -11z"/>
<path d="M17 3763 c-3 -5 -5 -80 -7 -168 -1 -88 -3 -204 -4 -257 -1 -54 1 -98
4 -98 4 0 8 87 9 193 2 105 4 225 6 265 2 70 1 80 -8 65z"/>
<path d="M359 3743 c-13 -16 -12 -17 4 -4 9 7 17 15 17 17 0 8 -8 3 -21 -13z"/>
<path d="M330 3731 c0 -6 4 -13 10 -16 6 -3 7 1 4 9 -7 18 -14 21 -14 7z"/>
<path d="M315 3690 c-5 -8 42 -7 49 1 3 3 -6 5 -20 5 -14 0 -27 -3 -29 -6z"/>
<path d="M370 3670 c0 -5 5 -10 11 -10 5 0 7 5 4 10 -3 6 -8 10 -11 10 -2 0
-4 -4 -4 -10z"/>
<path d="M330 3666 c0 -2 8 -10 18 -17 15 -13 16 -12 3 4 -13 16 -21 21 -21
13z"/>
<path d="M216 3637 c3 -10 9 -15 12 -12 3 3 0 11 -7 18 -10 9 -11 8 -5 -6z"/>
<path d="M270 3610 c0 -5 5 -10 11 -10 5 0 7 5 4 10 -3 6 -8 10 -11 10 -2 0
-4 -4 -4 -10z"/>
<path d="M322 3608 c-15 -15 -15 -28 0 -28 6 0 8 3 5 7 -4 3 -2 12 4 20 14 16
7 17 -9 1z"/>
<path d="M357 3602 c-15 -16 -15 -18 1 -18 10 0 18 8 18 18 0 10 -1 18 -2 18
0 0 -8 -8 -17 -18z"/>
<path d="M4515 3579 c-4 -6 -5 -12 -2 -15 2 -3 7 2 10 11 7 17 1 20 -8 4z"/>
<path d="M270 3569 c0 -5 5 -7 10 -4 6 3 10 8 10 11 0 2 -4 4 -10 4 -5 0 -10
-5 -10 -11z"/>
<path d="M309 3553 c-13 -16 -12 -17 4 -4 9 7 17 15 17 17 0 8 -8 3 -21 -13z"/>
<path d="M4710 3550 c0 -5 5 -10 10 -10 6 0 10 5 10 10 0 6 -4 10 -10 10 -5 0
-10 -4 -10 -10z"/>
<path d="M233 3537 c0 -8 6 -14 14 -14 9 0 10 4 2 14 -6 7 -12 13 -14 13 -1 0
-2 -6 -2 -13z"/>
<path d="M4553 3535 c0 -8 4 -12 9 -9 5 3 6 10 3 15 -9 13 -12 11 -12 -6z"/>
<path d="M4735 3529 c-11 -16 -1 -19 13 -3 7 8 8 14 3 14 -5 0 -13 -5 -16 -11z"/>
<path d="M4630 3506 c6 -6 3 -14 -8 -23 -15 -13 -14 -13 6 -3 12 6 20 15 17
20 -3 4 1 10 7 13 7 3 3 4 -9 4 -15 -1 -19 -5 -13 -11z"/>
<path d="M4676 3509 c3 -5 10 -7 15 -4 5 4 8 -4 6 -17 -1 -13 3 -23 11 -23 7
0 17 -7 22 -15 5 -8 10 -10 10 -5 0 19 -18 38 -29 31 -7 -5 -10 1 -8 15 1 14
-4 23 -16 24 -9 2 -15 -1 -11 -6z"/>
<path d="M4155 3480 c-3 -5 -1 -10 4 -10 6 0 11 5 11 10 0 6 -2 10 -4 10 -3 0
-8 -4 -11 -10z"/>
<path d="M216 3472 c-3 -5 1 -9 9 -9 8 0 12 4 9 9 -3 4 -7 8 -9 8 -2 0 -6 -4
-9 -8z"/>
<path d="M4671 3475 c1 -19 18 -51 18 -35 0 8 -4 22 -9 30 -5 8 -9 11 -9 5z"/>
<path d="M324 3453 c4 -4 16 -8 28 -10 28 -4 18 6 -12 12 -12 2 -20 1 -16 -2z"/>
<path d="M4159 3458 c-5 -16 -4 -46 2 -42 4 2 7 13 6 24 -1 17 -5 26 -8 18z"/>
<path d="M4500 3450 c-9 -6 -10 -10 -3 -10 6 0 15 5 18 10 8 12 4 12 -15 0z"/>
<path d="M4635 3452 c3 -3 0 -10 -5 -17 -7 -8 -4 -11 10 -10 11 1 23 5 27 10
5 4 2 4 -6 0 -10 -6 -13 -4 -9 7 4 9 0 15 -8 15 -8 0 -12 -3 -9 -5z"/>
<path d="M333 3415 c0 -8 4 -12 9 -9 5 3 6 10 3 15 -9 13 -12 11 -12 -6z"/>
<path d="M286 3408 c3 -5 10 -6 15 -3 13 9 11 12 -6 12 -8 0 -12 -4 -9 -9z"/>
<path d="M4547 3409 c7 -7 15 -10 18 -7 3 3 -2 9 -12 12 -14 6 -15 5 -6 -5z"/>
<path d="M4711 3401 c13 -11 26 -17 28 -15 5 5 -30 33 -43 34 -4 0 2 -9 15
-19z"/>
<path d="M349 3393 c-11 -15 -11 -16 1 -5 18 15 34 16 24 0 -4 -7 -3 -8 5 -4
12 8 6 26 -8 26 -5 0 -15 -8 -22 -17z"/>
<path d="M393 3382 c-8 -14 -8 -19 1 -19 7 0 13 9 13 19 1 10 1 18 0 18 -1 0
-7 -8 -14 -18z"/>
<path d="M4150 3390 c0 -5 5 -10 10 -10 6 0 10 5 10 10 0 6 -4 10 -10 10 -5 0
-10 -4 -10 -10z"/>
<path d="M4678 3392 c13 -4 22 -11 20 -17 -2 -5 8 -11 22 -12 24 -2 24 -2 2 5
-13 4 -22 12 -20 17 2 6 -8 11 -22 12 -24 2 -24 2 -2 -5z"/>
<path d="M4615 3379 c-4 -6 -5 -12 -2 -15 2 -3 7 2 10 11 7 17 1 20 -8 4z"/>
<path d="M306 3372 c-3 -5 1 -9 9 -9 8 0 15 4 15 9 0 4 -4 8 -9 8 -6 0 -12 -4
-15 -8z"/>
<path d="M440 3360 c11 -11 22 -20 25 -20 3 0 0 9 -7 20 -7 11 -18 20 -25 20
-8 0 -5 -8 7 -20z"/>
<path d="M4550 3376 c0 -2 7 -7 16 -10 8 -3 12 -2 9 4 -6 10 -25 14 -25 6z"/>
<path d="M4668 3362 c9 -10 19 -17 21 -16 6 5 -20 34 -30 34 -5 0 -1 -8 9 -18z"/>
<path d="M290 3346 c0 -2 8 -10 18 -17 15 -13 16 -12 3 4 -13 16 -21 21 -21
13z"/>
<path d="M376 3334 c-4 -9 -4 -19 -1 -22 3 -3 5 0 5 7 0 7 4 9 10 6 6 -3 7 1
4 9 -8 20 -10 20 -18 0z"/>
<path d="M4613 3335 c0 -8 5 -11 10 -8 6 4 8 0 4 -10 -9 -25 0 -21 14 6 6 12
8 19 4 15 -5 -4 -13 -3 -20 2 -8 7 -12 5 -12 -5z"/>
<path d="M425 3330 c3 -5 11 -10 16 -10 6 0 7 5 4 10 -3 6 -11 10 -16 10 -6 0
-7 -4 -4 -10z"/>
<path d="M4705 3330 c3 -5 11 -10 16 -10 6 0 7 5 4 10 -3 6 -11 10 -16 10 -6
0 -7 -4 -4 -10z"/>
<path d="M4150 3315 c0 -8 4 -15 8 -15 5 0 9 7 9 15 0 8 -4 15 -9 15 -4 0 -8
-7 -8 -15z"/>
<path d="M194 3312 c4 -3 14 -7 22 -8 9 -1 13 0 10 4 -4 3 -14 7 -22 8 -9 1
-13 0 -10 -4z"/>
<path d="M400 3308 c-12 -8 -11 -9 4 -4 13 5 17 2 12 -9 -3 -8 -1 -15 4 -15
12 0 13 27 2 34 -4 2 -14 0 -22 -6z"/>
<path d="M279 3283 c-13 -16 -12 -17 4 -4 16 13 21 21 13 21 -2 0 -10 -8 -17
-17z"/>
<path d="M361 3286 c-9 -10 -9 -16 -1 -21 6 -4 14 -4 17 -1 4 3 1 6 -6 6 -7 0
-9 5 -6 10 4 6 11 7 17 4 7 -4 8 -2 4 4 -9 15 -11 15 -25 -2z"/>
<path d="M4646 3288 c3 -5 9 -7 12 -4 3 3 12 0 21 -6 13 -10 14 -10 4 2 -15
16 -46 23 -37 8z"/>
<path d="M4631 3263 c7 -10 15 -20 16 -22 2 -2 3 3 3 11 0 9 -7 19 -16 22 -15
6 -15 4 -3 -11z"/>
<path d="M397 3263 c-10 -9 -9 -23 1 -23 5 0 9 7 9 15 0 17 -1 18 -10 8z"/>
<path d="M4570 3266 c0 -2 8 -10 18 -17 15 -13 16 -12 3 4 -13 16 -21 21 -21
13z"/>
<path d="M4495 3250 c3 -5 8 -10 11 -10 2 0 4 5 4 10 0 6 -5 10 -11 10 -5 0
-7 -4 -4 -10z"/>
<path d="M4610 3251 c0 -6 4 -13 10 -16 6 -3 7 1 4 9 -7 18 -14 21 -14 7z"/>
<path d="M357 3218 c14 -15 33 -16 33 -2 0 3 -5 2 -12 -2 -7 -5 -9 -2 -6 7 4
10 -1 15 -13 15 -17 0 -17 -2 -2 -18z"/>
<path d="M4550 3236 c0 -2 7 -7 16 -10 8 -3 12 -2 9 4 -6 10 -25 14 -25 6z"/>
<path d="M310 3216 c0 -2 7 -7 16 -10 8 -3 12 -2 9 4 -6 10 -25 14 -25 6z"/>
<path d="M4500 3210 c-9 -6 -10 -10 -3 -10 6 0 15 5 18 10 8 12 4 12 -15 0z"/>
<path d="M2 3185 c-1 -14 2 -25 6 -25 5 0 8 9 7 20 -2 29 -10 33 -13 5z"/>
<path d="M215 3191 c-3 -5 -2 -12 3 -15 5 -3 9 1 9 9 0 17 -3 19 -12 6z"/>
<path d="M454 3186 c-3 -9 -10 -13 -15 -10 -5 3 -6 -3 -2 -12 4 -11 2 -15 -4
-11 -6 4 -18 -6 -27 -21 l-17 -27 19 22 c11 12 22 20 25 16 4 -3 12 6 18 20
12 26 33 29 23 3 -3 -7 2 -16 10 -19 9 -4 16 -2 16 3 0 6 -5 10 -11 10 -5 0
-8 4 -5 9 3 5 -1 14 -9 21 -12 10 -16 9 -21 -4z"/>
<path d="M382 3174 c10 -10 20 -15 24 -12 3 4 -5 12 -18 18 -22 12 -22 12 -6
-6z"/>
<path d="M339 3163 c-13 -16 -12 -17 4 -4 9 7 17 15 17 17 0 8 -8 3 -21 -13z"/>
<path d="M374 3152 c4 -7 1 -12 -8 -12 -9 0 -16 -4 -16 -8 0 -5 7 -9 15 -9 18
0 28 24 13 33 -7 4 -8 3 -4 -4z"/>
<path d="M0 3119 c0 -16 4 -28 9 -25 8 5 3 56 -5 56 -2 0 -4 -14 -4 -31z"/>
<path d="M460 3130 c8 -5 22 -9 30 -9 10 0 8 3 -5 9 -27 12 -43 12 -25 0z"/>
<path d="M4436 3128 c3 -5 10 -6 15 -3 13 9 11 12 -6 12 -8 0 -12 -4 -9 -9z"/>
<path d="M213 3113 c4 -3 1 -13 -6 -22 -11 -14 -10 -14 5 -2 16 12 16 31 1 31
-4 0 -3 -3 0 -7z"/>
<path d="M430 3110 c0 -5 8 -6 18 -3 15 6 16 5 2 -13 -14 -18 -14 -18 2 -5 10
7 15 17 12 22 -7 12 -34 11 -34 -1z"/>
<path d="M333 3097 c0 -8 6 -14 14 -14 9 0 10 4 2 14 -6 7 -12 13 -14 13 -1 0
-2 -6 -2 -13z"/>
<path d="M0 3069 c0 -5 5 -7 10 -4 5 3 10 8 10 11 0 2 -4 4 -10 4 -5 0 -10 -5
-10 -11z"/>
<path d="M333 3057 c0 -8 6 -14 14 -14 9 0 10 4 2 14 -6 7 -12 13 -14 13 -1 0
-2 -6 -2 -13z"/>
<path d="M0 2717 c0 -185 3 -337 8 -337 8 0 6 660 -3 668 -3 3 -5 -146 -5
-331z"/>
<path d="M306 2972 c-3 -5 1 -9 9 -9 8 0 12 4 9 9 -3 4 -7 8 -9 8 -2 0 -6 -4
-9 -8z"/>
<path d="M310 2946 c0 -2 8 -10 18 -17 15 -13 16 -12 3 4 -13 16 -21 21 -21
13z"/>
<path d="M256 2863 c-6 -14 -5 -15 5 -6 7 7 10 15 7 18 -3 3 -9 -2 -12 -12z"/>
<path d="M270 2809 c0 -5 5 -7 10 -4 6 3 10 8 10 11 0 2 -4 4 -10 4 -5 0 -10
-5 -10 -11z"/>
<path d="M310 2810 c0 -5 5 -10 11 -10 5 0 7 5 4 10 -3 6 -8 10 -11 10 -2 0
-4 -4 -4 -10z"/>
<path d="M310 2769 c0 -5 5 -7 10 -4 6 3 10 8 10 11 0 2 -4 4 -10 4 -5 0 -10
-5 -10 -11z"/>
<path d="M295 2670 c-3 -5 -1 -10 4 -10 6 0 11 5 11 10 0 6 -2 10 -4 10 -3 0
-8 -4 -11 -10z"/>
<path d="M305 2570 c-3 -6 1 -7 9 -4 18 7 21 14 7 14 -6 0 -13 -4 -16 -10z"/>
<path d="M4154 2450 c0 -11 4 -20 8 -20 4 0 8 9 8 20 0 11 -4 20 -8 20 -4 0
-8 -9 -8 -20z"/>
<path d="M4161 2373 c0 -29 3 -53 7 -53 4 0 6 17 4 38 -6 64 -10 69 -11 15z"/>
<path d="M5 2342 c1 -15 3 -57 3 -94 1 -38 5 -68 10 -68 4 0 4 37 1 83 -4 45
-5 85 -3 89 3 4 0 9 -4 12 -5 3 -8 -7 -7 -22z"/>
<path d="M4497 2173 c11 -106 22 -149 16 -63 -4 47 -6 91 -6 98 0 6 -4 12 -7
12 -4 0 -5 -21 -3 -47z"/>
<path d="M15 2160 c-3 -5 -1 -10 4 -10 6 0 11 5 11 10 0 6 -2 10 -4 10 -3 0
-8 -4 -11 -10z"/>
<path d="M26 2075 c19 -268 95 -565 194 -751 65 -123 142 -219 247 -304 27
-22 111 -67 163 -88 80 -31 197 -52 291 -52 112 0 95 9 -27 14 -372 14 -619
230 -757 661 -37 115 -81 318 -92 420 -3 33 -10 85 -15 115 -9 53 -9 53 -4
-15z"/>
<path d="M346 2033 c9 -106 20 -186 40 -288 25 -134 105 -318 166 -386 88 -95
180 -133 318 -130 47 1 99 4 115 7 17 3 44 6 60 7 17 1 32 4 35 7 3 3 30 12
60 19 30 8 79 22 108 31 32 11 52 13 52 7 0 -6 6 -2 14 9 8 10 18 16 22 12 4
-4 12 -3 19 2 6 5 21 11 32 13 12 2 28 9 37 16 8 7 20 10 26 6 5 -3 10 -1 10
4 0 6 3 10 8 9 4 0 16 3 27 7 143 59 196 71 179 43 -4 -7 -2 -8 4 -4 6 4 8 14
5 24 -6 15 -5 15 10 3 15 -12 17 -12 12 1 -6 15 -1 17 49 21 13 1 22 6 18 11
-3 5 2 7 11 3 9 -3 17 -2 19 3 3 10 214 66 286 76 67 10 257 10 321 1 62 -9
188 -57 235 -89 37 -26 69 -60 103 -110 l26 -38 -27 -35 c-31 -40 -45 -42
-156 -23 -116 20 -320 -15 -605 -103 -71 -23 -153 -50 -182 -61 -29 -11 -53
-19 -55 -17 -2 1 -13 -3 -26 -10 -13 -7 -31 -14 -40 -16 -9 -2 -64 -20 -122
-40 -114 -38 -143 -47 -177 -49 -11 0 -20 -4 -18 -7 5 -8 -218 -58 -292 -65
-35 -4 -63 -11 -63 -16 0 -4 10 -6 23 -4 12 3 45 8 72 11 51 7 237 51 335 80
30 9 62 18 70 20 8 2 127 42 265 90 214 74 417 135 498 150 12 3 33 7 47 9
118 23 206 27 291 14 95 -14 122 -7 149 36 19 32 20 37 7 63 -8 15 -34 49 -57
76 -47 53 -164 115 -260 138 -61 14 -298 18 -372 6 -137 -22 -309 -75 -588
-179 -652 -243 -881 -212 -1030 141 -50 116 -89 312 -102 503 -2 27 -6 48 -10
48 -4 0 -5 -26 -2 -57z"/>
<path d="M4514 2003 c3 -10 8 -36 11 -58 11 -73 44 -194 71 -262 63 -159 152
-254 280 -298 50 -17 234 -27 234 -12 0 4 12 7 28 7 15 0 65 9 112 21 47 11
94 21 105 23 12 1 26 6 33 10 7 4 12 4 12 -1 0 -4 4 -2 9 6 8 12 12 13 25 1
14 -11 16 -11 11 2 -4 10 9 18 47 28 29 8 58 15 63 15 6 0 13 5 18 10 4 6 11
4 18 -5 9 -13 10 -13 6 2 -4 10 1 18 11 21 9 3 26 8 36 13 15 6 17 4 11 -7 -7
-11 -6 -12 7 -2 8 7 19 9 23 5 5 -4 5 -2 2 4 -4 7 0 15 9 18 23 9 27 7 18 -7
-5 -7 -2 -5 8 5 9 10 56 32 105 48 48 17 95 34 103 37 19 8 40 13 65 16 11 1
23 5 26 10 3 4 15 9 27 12 12 2 27 7 32 10 6 3 10 0 10 -7 0 -10 2 -10 9 1 5
7 14 10 20 7 6 -4 11 -2 11 5 0 7 10 9 25 7 14 -3 25 -2 25 2 0 13 124 28 223
26 53 0 97 3 97 8 0 9 -236 2 -285 -9 -16 -3 -60 -13 -98 -21 -69 -14 -308
-93 -467 -154 -387 -147 -652 -193 -795 -135 -113 46 -195 141 -254 295 -36
93 -69 228 -70 293 -1 15 -6 27 -12 27 -6 0 -8 -8 -5 -17z"/>
<path d="M4256 1758 c116 -400 302 -623 593 -710 88 -27 283 -32 406 -12 148
24 328 72 540 146 398 137 622 201 756 215 33 3 61 9 64 13 13 20 -231 -28
-425 -85 -30 -9 -62 -18 -70 -20 -8 -2 -69 -23 -135 -46 -201 -70 -348 -120
-365 -122 -8 -1 -20 -6 -26 -9 -22 -15 -305 -77 -397 -89 -271 -33 -503 42
-670 216 -103 106 -204 301 -258 498 -13 48 -27 87 -30 87 -4 0 4 -37 17 -82z"/>
<path d="M6510 1719 c0 -5 10 -9 22 -9 43 0 154 -33 209 -62 63 -33 134 -99
161 -149 16 -30 16 -34 0 -61 -20 -34 -47 -43 -110 -34 -99 15 -162 18 -162 9
0 -5 24 -9 53 -10 28 -1 82 -4 120 -8 74 -8 88 -2 113 47 13 25 13 32 -2 60
-21 41 -101 119 -156 151 -64 37 -248 86 -248 66z"/>
<path d="M6055 1631 c-3 -5 -2 -12 3 -15 5 -3 9 1 9 9 0 17 -3 19 -12 6z"/>
<path d="M5930 1589 c0 -5 5 -7 10 -4 6 3 10 8 10 11 0 2 -4 4 -10 4 -5 0 -10
-5 -10 -11z"/>
<path d="M5976 1588 c3 -5 10 -6 15 -3 13 9 11 12 -6 12 -8 0 -12 -4 -9 -9z"/>
<path d="M6000 1570 c-9 -6 -10 -10 -3 -10 6 0 15 5 18 10 8 12 4 12 -15 0z"/>
<path d="M5756 1551 c-3 -5 2 -15 12 -22 15 -12 16 -12 5 2 -7 9 -10 19 -6 22
3 4 4 7 0 7 -3 0 -8 -4 -11 -9z"/>
<path d="M6146 1552 c-3 -5 1 -9 9 -9 8 0 12 4 9 9 -3 4 -7 8 -9 8 -2 0 -6 -4
-9 -8z"/>
<path d="M5867 1529 c7 -7 15 -10 18 -7 3 3 -2 9 -12 12 -14 6 -15 5 -6 -5z"/>
<path d="M1876 1483 c-6 -14 -5 -15 5 -6 7 7 10 15 7 18 -3 3 -9 -2 -12 -12z"/>
<path d="M5935 1490 c3 -5 8 -10 11 -10 2 0 4 5 4 10 0 6 -5 10 -11 10 -5 0
-7 -4 -4 -10z"/>
<path d="M5993 1485 c0 -8 4 -12 9 -9 5 3 6 10 3 15 -9 13 -12 11 -12 -6z"/>
<path d="M1775 1430 c3 -5 8 -10 11 -10 2 0 4 5 4 10 0 6 -5 10 -11 10 -5 0
-7 -4 -4 -10z"/>
<path d="M5535 1430 c-3 -5 -1 -10 4 -10 6 0 11 5 11 10 0 6 -2 10 -4 10 -3 0
-8 -4 -11 -10z"/>
<path d="M5415 1410 c-3 -5 -1 -10 4 -10 6 0 11 5 11 10 0 6 -2 10 -4 10 -3 0
-8 -4 -11 -10z"/>
<path d="M5700 1410 c-9 -6 -10 -10 -3 -10 6 0 15 5 18 10 8 12 4 12 -15 0z"/>
<path d="M1716 1392 c-3 -5 1 -9 9 -9 8 0 12 4 9 9 -3 4 -7 8 -9 8 -2 0 -6 -4
-9 -8z"/>
<path d="M5446 1388 c3 -5 10 -6 15 -3 13 9 11 12 -6 12 -8 0 -12 -4 -9 -9z"/>
<path d="M5519 1383 c-13 -17 -13 -17 6 -3 11 8 22 16 24 17 2 2 0 3 -6 3 -6
0 -17 -8 -24 -17z"/>
<path d="M1530 1349 c0 -5 5 -7 10 -4 6 3 10 8 10 11 0 2 -4 4 -10 4 -5 0 -10
-5 -10 -11z"/>
<path d="M1654 1352 c4 -3 14 -7 22 -8 9 -1 13 0 10 4 -4 3 -14 7 -22 8 -9 1
-13 0 -10 -4z"/>
<path d="M1579 1338 c-5 -18 -6 -38 -1 -34 7 8 12 36 6 36 -2 0 -4 -1 -5 -2z"/>
<path d="M5216 1323 c-6 -14 -5 -15 5 -6 7 7 10 15 7 18 -3 3 -9 -2 -12 -12z"/>
<path d="M1635 1310 c-3 -5 -1 -10 4 -10 6 0 11 5 11 10 0 6 -2 10 -4 10 -3 0
-8 -4 -11 -10z"/>
<path d="M1470 1295 c0 -5 5 -17 10 -25 5 -8 10 -10 10 -5 0 6 -5 17 -10 25
-5 8 -10 11 -10 5z"/>
<path d="M1830 1296 c0 -2 7 -7 16 -10 8 -3 12 -2 9 4 -6 10 -25 14 -25 6z"/>
<path d="M1376 1272 c-3 -5 1 -9 9 -9 8 0 12 4 9 9 -3 4 -7 8 -9 8 -2 0 -6 -4
-9 -8z"/>
<path d="M1230 1146 c0 -2 8 -10 18 -17 15 -13 16 -12 3 4 -13 16 -21 21 -21
13z"/>
</g>
</svg>
