<?xml version="1.0" standalone="no"?>
<!DOCTYPE svg PUBLIC "-//W3C//DTD SVG 20010904//EN"
 "http://www.w3.org/TR/2001/REC-SVG-20010904/DTD/svg10.dtd">
<svg version="1.0" xmlns="http://www.w3.org/2000/svg"
 width="696.000000pt" height="696.000000pt" viewBox="0 0 696.000000 696.000000"
 preserveAspectRatio="xMidYMid meet">
<metadata>
Created by potrace 1.11, written by Peter Selinger 2001-2013
</metadata>
<g transform="translate(0.000000,696.000000) scale(0.100000,-0.100000)"
fill="#000000" stroke="none">
<path d="M1902 5979 c-67 -10 -166 -27 -220 -39 -53 -12 -110 -24 -127 -26
-16 -3 -48 -10 -70 -16 -22 -5 -47 -11 -55 -13 -23 -5 -120 -30 -392 -101
-136 -36 -255 -67 -265 -68 -10 -2 -36 -9 -58 -15 -50 -13 -358 -78 -405 -85
-19 -2 -55 -8 -80 -11 -81 -11 -149 -57 -172 -115 -16 -42 -11 -147 11 -250
11 -48 5 -243 -15 -485 -2 -33 -6 -105 -9 -160 -2 -55 -7 -149 -10 -210 -20
-411 -29 -816 -29 -1445 -1 -552 3 -702 25 -855 5 -38 12 -88 15 -110 6 -46
29 -161 44 -220 6 -22 12 -47 14 -56 13 -51 30 -105 38 -114 4 -5 8 -15 8 -23
0 -24 85 -196 130 -263 88 -130 223 -241 350 -288 96 -35 142 -43 248 -47 196
-7 396 34 732 148 375 127 443 149 550 177 217 55 331 66 491 47 65 -8 65 -8
92 24 15 17 27 37 27 44 0 20 -48 87 -88 125 -77 70 -254 131 -383 131 l-51 0
7 82 c4 46 8 90 10 98 1 8 6 50 10 92 9 109 12 132 31 222 80 394 398 936 610
1042 94 46 169 30 202 -44 24 -55 23 -256 -2 -447 -2 -16 -7 -64 -11 -105 -3
-41 -8 -86 -10 -100 -2 -14 -6 -54 -10 -90 -4 -36 -8 -76 -10 -90 -2 -14 -6
-56 -10 -95 -3 -38 -8 -86 -10 -105 -2 -19 -7 -64 -10 -100 -3 -36 -8 -81 -10
-100 -2 -19 -7 -64 -10 -100 -3 -36 -8 -81 -10 -100 -8 -69 -17 -159 -20 -197
-7 -90 -18 -179 -21 -185 -14 -22 29 -9 161 50 132 59 149 70 151 92 1 30 13
151 19 200 5 38 21 189 30 285 17 163 52 307 117 475 17 46 130 272 164 330
131 222 262 373 371 426 130 64 210 11 214 -140 2 -54 -9 -221 -16 -246 -2 -8
-7 -46 -10 -85 -3 -38 -8 -83 -10 -100 -11 -79 -35 -264 -40 -300 -2 -22 -9
-71 -15 -110 -6 -38 -12 -86 -14 -105 -9 -85 -18 -152 -21 -170 -2 -10 -6 -47
-10 -82 -3 -35 -8 -81 -10 -103 -8 -80 -6 -271 4 -303 27 -88 81 -133 162
-134 83 -1 204 75 346 218 56 57 103 99 103 93 0 -21 88 -187 128 -241 91
-124 219 -211 362 -248 97 -25 292 -21 426 8 90 20 350 94 389 111 77 35 355
124 480 155 163 41 272 50 395 33 59 -8 77 -1 99 41 10 19 9 28 -9 56 -50 82
-146 143 -270 170 -74 17 -216 22 -300 10 -76 -11 -260 -61 -380 -105 -63 -22
-164 -59 -225 -81 -125 -45 -252 -83 -310 -93 -22 -3 -62 -10 -90 -15 -244
-40 -403 89 -479 390 -44 175 -51 265 -51 645 0 176 4 363 7 415 4 52 8 98 8
102 1 23 216 103 475 178 482 140 655 159 790 89 25 -12 118 19 152 51 l21 19
-23 92 c-13 51 -30 98 -37 104 -33 32 -163 68 -253 71 -143 5 -226 -13 -555
-121 -220 -71 -366 -106 -457 -108 -89 -2 -96 7 -88 107 7 107 12 180 19 301
4 55 9 127 11 160 7 92 14 181 20 280 3 50 8 110 10 135 3 25 8 84 10 132 3
47 7 100 10 116 2 17 6 68 10 114 13 179 10 172 123 228 64 31 245 95 296 104
15 3 42 10 59 15 63 20 361 81 517 105 19 3 44 7 55 10 11 2 47 7 80 10 33 4
67 9 75 11 21 6 154 15 285 20 161 7 222 21 267 62 41 37 30 112 -25 164 -73
69 -151 92 -317 93 -150 0 -370 -40 -720 -130 -118 -30 -222 -57 -230 -59 -8
-2 -78 -19 -155 -39 -141 -35 -308 -74 -355 -82 -14 -2 -36 -7 -50 -10 -13 -3
-40 -7 -60 -10 -164 -20 -227 -63 -235 -160 -1 -19 4 -76 12 -127 13 -84 12
-256 -2 -422 -6 -69 -25 -441 -30 -575 -25 -711 -25 -1676 0 -1770 2 -8 6 -37
10 -65 3 -27 10 -72 15 -100 5 -27 11 -61 14 -75 2 -14 10 -46 16 -72 7 -26
10 -58 6 -70 -8 -34 -105 -128 -154 -150 -80 -36 -104 -7 -102 125 1 91 3 131
15 237 13 124 16 146 20 170 3 14 7 45 10 70 3 25 10 77 15 115 6 39 12 86 14
105 2 19 6 53 10 75 3 22 10 78 16 125 6 47 13 99 15 115 66 476 64 636 -10
723 -76 90 -224 81 -386 -23 -80 -51 -265 -231 -340 -330 -111 -145 -229 -340
-300 -492 -19 -40 -37 -73 -40 -73 -6 0 -6 11 5 85 3 22 8 69 11 105 3 36 8
81 10 100 2 19 7 62 10 95 3 33 8 85 11 115 42 391 -45 529 -291 464 -145 -37
-304 -162 -472 -371 -60 -74 -204 -288 -249 -368 -63 -114 -88 -147 -86 -115
0 7 13 130 17 160 2 14 6 57 10 95 4 39 8 81 10 95 4 24 16 189 19 260 1 19
-2 59 -6 89 -24 153 -132 209 -273 143 -95 -45 -246 -178 -351 -308 -21 -27
-42 -51 -45 -54 -20 -16 -80 -143 -85 -181 -5 -39 -3 -49 19 -74 l25 -29 32
64 c104 208 228 333 310 315 47 -10 60 -57 55 -205 -3 -69 -6 -138 -9 -155 -5
-39 -14 -126 -21 -195 -3 -30 -7 -75 -10 -100 -3 -25 -7 -70 -10 -100 -3 -30
-7 -76 -10 -102 -6 -53 -12 -115 -20 -198 -3 -30 -8 -75 -10 -100 -8 -73 -13
-120 -20 -205 -4 -44 -9 -87 -10 -95 -2 -8 -6 -47 -10 -86 l-7 -72 -61 -17
c-100 -28 -195 -60 -327 -110 -342 -129 -514 -175 -680 -181 -99 -3 -123 -1
-170 17 -202 76 -319 317 -358 734 -9 102 -9 755 0 900 4 61 7 116 8 122 1 56
853 316 1148 350 118 14 199 5 277 -31 l52 -23 55 22 c92 37 111 54 104 89
-11 61 -17 90 -21 96 -5 8 -17 69 -18 89 0 17 -107 66 -189 87 -164 42 -325
16 -746 -120 -128 -42 -243 -78 -255 -80 -12 -2 -40 -9 -62 -14 -80 -22 -221
-41 -254 -35 -37 6 -61 22 -62 41 -2 21 -2 8 5 132 4 58 9 137 11 175 6 101
14 220 20 295 3 36 7 103 10 150 3 47 8 108 10 135 2 28 7 91 10 140 3 50 8
110 10 135 3 25 7 81 10 125 3 44 7 100 10 125 3 25 7 74 10 110 15 182 11
174 125 231 115 57 439 155 645 195 11 2 43 8 70 14 28 6 61 12 75 15 14 3 36
7 50 9 14 3 41 8 60 10 19 3 45 8 56 10 34 7 92 16 204 31 159 22 186 24 305
30 245 12 282 15 331 31 101 31 137 97 99 178 -19 39 -93 101 -157 130 -74 33
-283 40 -456 15z"/>
</g>
</svg>
